Dactyl Round.sfdir
StartChar: !
Encoding: 33 33 18
Width: 469
InSpiro: 1
Flags: H
LayerCount: 2
Back
SplineSet
239 693 m 0
 239 693 240 694 242 694 c 0
 242 693 243 693 244 693 c 0
 244 241 l 0
 243 240 242 240 242 240 c 0
 240 239 239 240 239 241 c 0
 239 693 l 0
242 85 m 0
 243 84 245 85 246 87 c 0
 248 88 249 90 249 92 c 0
 248 93 248 95 246 96 c 0
 245 98 243 98 242 99 c 0
 240 99 238 98 237 96 c 0
 235 95 235 93 235 92 c 0
 234 90 235 88 237 87 c 0
 238 85 240 84 242 85 c 0
  Spiro
    239 693 v
    242 694 c
    244 693 v
    244 241 v
    242 240 c
    239 241 v
    242 85 c
    249 92 c
    242 99 c
    235 92 c
    0 0 z
  EndSpiro
EndSplineSet
Fore
SplineSet
145 735 m 0
 167 763 203 780 240 780 c 0
 275 779 311 762 334 735 c 0
 334 195 l 0
 311 167 275 150 240 150 c 0
 203 149 167 166 145 195 c 0
 145 735 l 0
240 -5 m 0
 264 -5 289 5 307 22 c 0
 324 40 335 65 335 90 c 0
 334 114 324 139 307 157 c 0
 289 174 264 184 240 185 c 0
 215 185 190 174 172 157 c 0
 155 139 145 114 145 90 c 0
 144 65 155 40 172 22 c 0
 190 5 215 -5 240 -5 c 0
  Spiro
    145 735 v
    240 780 c
    334 735 v
    334 195 v
    240 150 c
    145 195 v
    240 -5 c
    335 90 c
    240 185 c
    145 90 c
    0 0 z
  EndSpiro
EndSplineSet
EndChar
StartChar: #
Encoding: 35 35 29
Width: 619
InSpiro: 1
Flags: H
LayerCount: 2
Back
SplineSet
90 490 m 0
 90 492 l 0
 90 494 l 0
 393 494 l 0
 393 493 394 492 394 492 c 0
 394 491 393 490 393 490 c 0
 90 490 l 0
90 290 m 0
 90 292 l 0
 90 294 l 0
 393 294 l 0
 393 293 394 292 394 292 c 0
 394 291 393 290 393 290 c 0
 90 290 l 0
189 693 m 0
 189 693 190 694 192 694 c 0
 192 693 193 693 194 693 c 0
 194 90 l 0
 192 90 l 0
 189 90 l 0
 189 693 l 0
289 693 m 0
 289 693 290 694 292 694 c 0
 292 693 293 693 294 693 c 0
 294 90 l 0
 292 90 l 0
 289 90 l 0
 289 693 l 0
  Spiro
    90 490 v
    90 492 c
    90 494 v
    393 494 v
    394 492 c
    393 490 v
    90 290 v
    90 292 c
    90 294 v
    393 294 v
    394 292 c
    393 290 v
    189 693 v
    192 694 c
    194 693 v
    194 90 v
    192 90 c
    189 90 v
    289 693 v
    292 694 c
    294 693 v
    294 90 v
    292 90 c
    289 90 v
    0 0 z
  EndSpiro
EndSplineSet
Fore
SplineSet
42 400 m 0
 13 420 -4 455 -4 490 c 0
 -3 524 13 559 42 580 c 0
 437 580 l 0
 465 559 484 525 484 490 c 0
 484 454 465 420 437 400 c 0
 42 400 l 0
42 200 m 0
 13 220 -4 255 -4 290 c 0
 -3 324 13 359 42 380 c 0
 437 380 l 0
 465 359 484 325 484 290 c 0
 484 254 465 220 437 200 c 0
 42 200 l 0
95 735 m 0
 117 763 153 780 190 780 c 0
 225 779 261 762 284 735 c 0
 284 44 l 0
 261 16 225 0 190 0 c 0
 153 0 118 16 95 44 c 0
 95 735 l 0
195 735 m 0
 217 763 253 780 290 780 c 0
 325 779 361 762 384 735 c 0
 384 44 l 0
 361 16 325 0 290 0 c 0
 253 0 218 16 195 44 c 0
 195 735 l 0
  Spiro
    42 400 v
    -4 490 c
    42 580 v
    437 580 v
    484 490 c
    437 400 v
    42 200 v
    -4 290 c
    42 380 v
    437 380 v
    484 290 c
    437 200 v
    95 735 v
    190 780 c
    284 735 v
    284 44 v
    190 0 c
    95 44 v
    195 735 v
    290 780 c
    384 735 v
    384 44 v
    290 0 c
    195 44 v
    0 0 z
  EndSpiro
EndSplineSet
EndChar
StartChar: $
Encoding: 36 36 16
Width: 619
InSpiro: 1
Flags: H
LayerCount: 2
Back
SplineSet
394 533 m 0
 394 531 393 530 393 530 c 0
 392 529 391 529 391 529 c 0
 346 559 294 580 241 590 c 0
 212 595 182 596 154 588 c 0
 141 583 127 576 117 567 c 0
 106 557 97 544 94 531 c 0
 88 512 91 492 99 475 c 0
 107 458 120 443 135 432 c 0
 166 410 204 401 242 393 c 0
 280 384 319 375 350 352 c 0
 366 340 380 325 388 308 c 0
 396 290 399 269 394 251 c 0
 389 236 381 223 369 213 c 0
 358 203 345 196 330 191 c 0
 301 182 270 184 241 190 c 0
 187 199 135 220 90 250 c 0
 89 250 89 250 89 251 c 0
 89 252 89 252 90 253 c 0
 90 253 91 253 92 254 c 0
 136 223 188 202 242 193 c 0
 270 187 300 186 328 194 c 0
 342 199 355 206 365 215 c 0
 376 225 385 238 389 252 c 0
 394 270 391 290 383 307 c 0
 375 324 362 339 347 350 c 0
 316 372 278 381 241 390 c 0
 203 398 163 407 132 430 c 0
 116 442 103 457 95 475 c 0
 87 492 84 513 90 532 c 0
 94 546 102 559 113 569 c 0
 125 579 138 586 152 591 c 0
 181 600 212 598 242 593 c 0
 296 583 348 562 394 533 c 0
239 693 m 0
 239 693 240 694 242 694 c 0
 242 693 243 693 244 693 c 0
 244 90 l 0
 242 90 l 0
 239 90 l 0
 239 693 l 0
  Spiro
    394 533 v
    393 530 c
    391 529 v
    241 590 c
    94 531 c
    242 393 c
    394 251 c
    241 190 c
    90 250 v
    90 253 c
    92 254 v
    242 193 c
    389 252 c
    241 390 c
    90 532 c
    242 593 c
    239 693 v
    242 694 c
    244 693 v
    244 90 v
    242 90 c
    239 90 v
    0 0 z
  EndSpiro
EndSplineSet
Fore
SplineSet
481 580 m 0
 492 547 487 508 468 480 c 0
 447 450 412 430 377 430 c 0
 324 451 273 475 223 501 c 0
 216 504 209 508 201 509 c 0
 197 510 194 510 190 509 c 0
 186 509 182 507 180 505 c 0
 176 501 173 496 172 491 c 0
 172 486 173 481 175 476 c 0
 178 472 182 468 186 465 c 0
 190 463 195 461 201 460 c 0
 211 459 221 461 231 464 c 0
 241 468 250 473 260 477 c 0
 293 490 331 492 365 483 c 0
 400 474 432 454 456 427 c 0
 479 400 494 365 498 329 c 0
 502 294 495 257 480 225 c 0
 457 179 417 144 371 123 c 0
 325 103 273 96 223 101 c 0
 140 107 60 142 -1 199 c 0
 -12 231 -8 269 11 299 c 0
 30 328 66 348 102 349 c 0
 154 327 205 303 256 278 c 0
 262 274 269 270 277 269 c 0
 281 268 284 268 288 269 c 0
 292 269 296 271 299 274 c 0
 302 277 305 282 306 287 c 0
 306 292 305 297 303 302 c 0
 300 306 296 310 292 313 c 0
 288 315 283 317 277 318 c 0
 267 319 257 317 247 314 c 0
 237 310 228 305 219 302 c 0
 185 288 148 286 113 295 c 0
 78 304 46 324 23 351 c 0
 0 379 -14 413 -18 449 c 0
 -22 485 -15 521 0 554 c 0
 22 599 62 634 108 654 c 0
 154 675 205 681 256 678 c 0
 339 671 419 636 481 580 c 0
145 735 m 0
 167 763 203 780 240 780 c 0
 275 779 311 762 334 735 c 0
 334 44 l 0
 311 16 275 0 240 0 c 0
 203 0 168 16 145 44 c 0
 145 735 l 0
  Spiro
    481 580 v
    468 480 c
    377 430 v
    223 501 c
    180 505 c
    260 477 c
    480 225 c
    223 101 c
    -1 199 v
    11 299 c
    102 349 v
    256 278 c
    299 274 c
    219 302 c
    0 554 c
    256 678 c
    145 735 v
    240 780 c
    334 735 v
    334 44 v
    240 0 c
    145 44 v
    0 0 z
  EndSpiro
EndSplineSet
EndChar
StartChar: %
Encoding: 37 37 34
Width: 619
InSpiro: 1
Flags: H
LayerCount: 2
Back
SplineSet
142 585 m 0
 143 584 145 585 146 587 c 0
 148 588 149 590 149 592 c 0
 148 593 148 595 146 596 c 0
 145 598 143 598 142 599 c 0
 140 599 138 598 137 596 c 0
 135 595 135 593 135 592 c 0
 134 590 135 588 137 587 c 0
 138 585 140 584 142 585 c 0
342 185 m 0
 343 184 345 185 346 187 c 0
 348 188 349 190 349 192 c 0
 348 193 348 195 346 196 c 0
 345 198 343 198 342 199 c 0
 340 199 338 198 337 196 c 0
 335 195 335 193 335 192 c 0
 334 190 335 188 337 187 c 0
 338 185 340 184 342 185 c 0
390 693 m 0
 390 693 391 693 392 693 c 0
 392 692 393 692 394 692 c 0
 93 90 l 0
 92 89 91 89 91 90 c 0
 90 90 90 90 90 91 c 0
 390 693 l 0
  Spiro
    142 585 c
    149 592 c
    142 599 c
    135 592 c
    342 185 c
    349 192 c
    342 199 c
    335 192 c
    390 693 v
    392 693 c
    394 692 v
    93 90 v
    91 90 c
    90 91 v
    0 0 z
  EndSpiro
EndSplineSet
Fore
SplineSet
140 495 m 0
 164 494 189 505 207 522 c 0
 224 540 235 565 235 590 c 0
 234 614 224 639 207 657 c 0
 189 674 164 684 140 685 c 0
 115 685 90 674 72 657 c 0
 55 639 45 614 45 590 c 0
 44 565 55 540 72 522 c 0
 90 505 115 494 140 495 c 0
340 95 m 0
 364 94 389 105 407 122 c 0
 424 140 435 165 435 190 c 0
 434 214 424 239 407 257 c 0
 389 274 364 284 340 285 c 0
 315 285 290 274 272 257 c 0
 255 239 245 214 245 190 c 0
 244 165 255 140 272 122 c 0
 290 105 315 94 340 95 c 0
326 770 m 0
 358 786 399 786 432 770 c 0
 463 754 487 724 495 690 c 0
 153 9 l 0
 120 -7 79 -7 47 9 c 0
 15 24 -7 54 -15 89 c 0
 326 770 l 0
  Spiro
    140 495 c
    235 590 c
    140 685 c
    45 590 c
    340 95 c
    435 190 c
    340 285 c
    245 190 c
    326 770 v
    432 770 c
    495 690 v
    153 9 v
    47 9 c
    -15 89 v
    0 0 z
  EndSpiro
EndSplineSet
EndChar
StartChar: &
Encoding: 38 38 11
Width: 619
InSpiro: 1
Flags: H
LayerCount: 2
Back
SplineSet
389 393 m 0
 389 393 390 394 392 394 c 0
 392 393 393 393 394 393 c 0
 394 380 l 0
 393 320 393 258 370 203 c 0
 359 175 343 149 321 129 c 0
 299 109 271 94 242 90 c 0
 200 83 156 97 126 126 c 0
 96 156 82 200 90 242 c 0
 95 273 113 302 134 325 c 0
 156 349 181 369 206 389 c 0
 232 409 257 429 277 454 c 0
 297 479 312 509 314 542 c 0
 315 576 302 611 279 637 c 0
 256 663 224 680 191 690 c 0
 170 695 149 698 128 693 c 0
 107 689 88 677 76 659 c 0
 65 642 61 620 65 599 c 0
 69 578 81 560 93 543 c 0
 394 92 l 0
 394 91 393 90 393 90 c 0
 392 89 392 89 391 89 c 0
 390 89 390 89 390 90 c 0
 90 540 l 0
 77 558 65 577 61 598 c 0
 57 620 61 643 73 661 c 0
 85 679 105 692 127 696 c 0
 148 701 170 698 192 693 c 0
 226 683 259 665 283 639 c 0
 306 612 321 576 319 541 c 0
 316 508 301 478 281 453 c 0
 261 428 236 408 210 388 c 0
 185 368 159 349 138 325 c 0
 116 301 99 272 94 241 c 0
 87 201 100 158 129 129 c 0
 158 100 200 86 241 93 c 0
 270 97 297 112 318 132 c 0
 340 152 356 178 366 205 c 0
 388 260 388 321 389 380 c 0
 389 393 l 0
  Spiro
    389 393 v
    392 394 c
    394 393 v
    394 380 ]
    242 90 c
    90 242 c
    314 542 c
    191 690 c
    93 543 [
    394 92 v
    393 90 c
    390 90 v
    90 540 ]
    192 693 c
    319 541 c
    94 241 c
    241 93 c
    389 380 [
    0 0 z
  EndSpiro
EndSplineSet
Fore
SplineSet
295 435 m 0
 317 463 353 480 390 480 c 0
 425 479 461 462 484 435 c 0
 484 290 l 0
 483 254 483 218 475 183 c 0
 468 148 453 114 431 86 c 0
 409 58 380 36 347 21 c 0
 314 7 278 0 243 0 c 0
 175 -1 105 20 56 66 c 0
 31 89 12 118 1 150 c 0
 -9 182 -11 218 -3 251 c 0
 4 281 20 308 40 333 c 0
 59 357 82 379 105 400 c 0
 128 421 151 442 171 466 c 0
 192 489 209 516 220 546 c 0
 223 556 226 566 225 577 c 0
 225 588 223 599 216 607 c 0
 213 611 209 615 204 617 c 0
 199 620 194 621 188 621 c 0
 183 621 178 619 173 616 c 0
 169 612 166 608 165 603 c 0
 164 600 164 598 164 595 c 0
 165 593 166 591 168 589 c 0
 494 102 l 0
 490 67 471 34 442 15 c 0
 411 -5 371 -10 337 2 c 0
 11 490 l 0
 -12 525 -35 561 -42 603 c 0
 -50 644 -41 689 -16 723 c 0
 8 756 47 778 89 785 c 0
 130 792 173 786 214 776 c 0
 270 761 325 736 365 693 c 0
 385 672 401 647 409 619 c 0
 417 591 418 560 409 533 c 0
 398 501 376 474 351 452 c 0
 326 430 298 412 272 393 c 0
 245 373 219 351 201 323 c 0
 193 309 186 293 182 277 c 0
 179 261 178 244 183 228 c 0
 186 215 192 203 201 194 c 0
 210 184 223 178 236 179 c 0
 247 179 259 184 267 191 c 0
 276 199 282 209 286 220 c 0
 295 242 294 266 295 290 c 0
 295 435 l 0
  Spiro
    295 435 v
    390 480 c
    484 435 v
    484 290 ]
    243 0 c
    -3 251 c
    220 546 c
    165 603 c
    168 589 [
    494 102 v
    442 15 c
    337 2 v
    11 490 ]
    214 776 c
    409 533 c
    183 228 c
    236 179 c
    295 290 [
    0 0 z
  EndSpiro
EndSplineSet
EndChar
StartChar: '
Encoding: 39 39 38
Width: 319
InSpiro: 1
Flags: H
LayerCount: 2
Back
SplineSet
90 693 m 0
 90 693 91 694 92 694 c 0
 92 694 93 693 94 693 c 0
 94 591 l 0
 93 590 92 590 92 590 c 0
 91 590 90 590 90 591 c 0
 90 693 l 0
  Spiro
    90 693 v
    92 694 c
    94 693 v
    94 591 v
    92 590 c
    90 591 v
    0 0 z
  EndSpiro
EndSplineSet
Fore
SplineSet
-4 735 m 0
 18 762 54 780 90 780 c 0
 125 780 161 762 184 735 c 0
 184 545 l 0
 161 517 125 500 90 500 c 0
 54 500 18 517 -4 545 c 0
 -4 735 l 0
  Spiro
    -4 735 v
    90 780 c
    184 735 v
    184 545 v
    90 500 c
    -4 545 v
    0 0 z
  EndSpiro
EndSplineSet
EndChar
StartChar: (
Encoding: 40 40 32
Width: 394
InSpiro: 1
Flags: H
LayerCount: 2
Back
SplineSet
165 693 m 0
 165 693 166 693 167 693 c 0
 167 692 168 691 169 691 c 0
 120 599 94 495 94 392 c 0
 93 287 119 183 169 92 c 0
 168 91 167 90 167 90 c 0
 166 89 165 89 165 90 c 0
 115 182 89 287 90 392 c 0
 90 496 116 600 165 693 c 0
  Spiro
    165 693 v
    167 693 c
    169 691 v
    94 392 c
    169 92 v
    167 90 c
    165 90 v
    90 392 c
    0 0 z
  EndSpiro
EndSplineSet
Fore
SplineSet
104 772 m 0
 136 787 176 785 209 769 c 0
 240 752 263 721 270 687 c 0
 214 598 184 494 184 390 c 0
 183 285 214 180 270 92 c 0
 263 57 240 26 209 10 c 0
 176 -6 136 -8 104 7 c 0
 33 121 -4 255 -4 390 c 0
 -3 524 33 657 104 772 c 0
  Spiro
    104 772 v
    209 769 c
    270 687 v
    184 390 c
    270 92 v
    209 10 c
    104 7 v
    -4 390 c
    0 0 z
  EndSpiro
EndSplineSet
EndChar
StartChar: )
Encoding: 41 41 33
Width: 394
InSpiro: 1
Flags: H
LayerCount: 2
Back
SplineSet
90 691 m 0
 89 691 90 691 90 692 c 0
 90 692 90 692 91 693 c 0
 91 693 91 693 92 693 c 0
 92 693 92 693 93 693 c 0
 142 600 168 496 169 392 c 0
 169 287 142 182 93 90 c 0
 92 89 92 89 92 89 c 0
 91 89 91 89 91 90 c 0
 90 90 90 90 90 90 c 0
 90 91 89 91 90 92 c 0
 138 184 164 287 164 392 c 0
 163 495 138 599 90 691 c 0
  Spiro
    90 691 v
    91 693 c
    93 693 v
    169 392 c
    93 90 v
    91 90 c
    90 92 v
    164 392 c
    0 0 z
  EndSpiro
EndSplineSet
Fore
SplineSet
-15 687 m 0
 -8 721 14 752 45 769 c 0
 76 786 117 787 150 772 c 0
 220 657 259 523 259 389 c 0
 258 254 220 120 150 7 c 0
 117 -8 76 -7 45 10 c 0
 14 26 -8 57 -15 92 c 0
 40 180 70 285 70 390 c 0
 69 494 40 598 -15 687 c 0
  Spiro
    -15 687 v
    45 769 c
    150 772 v
    259 389 c
    150 7 v
    45 10 c
    -15 92 v
    70 390 c
    0 0 z
  EndSpiro
EndSplineSet
EndChar
StartChar: +
Encoding: 43 43 36
Width: 619
InSpiro: 1
Flags: H
LayerCount: 2
Back
SplineSet
90 390 m 0
 90 392 l 0
 90 394 l 0
 393 394 l 0
 393 393 394 392 394 392 c 0
 394 391 393 390 393 390 c 0
 90 390 l 0
239 543 m 0
 239 543 240 544 242 544 c 0
 242 543 243 543 244 543 c 0
 244 241 l 0
 243 240 242 240 242 240 c 0
 240 239 239 240 239 241 c 0
 239 543 l 0
  Spiro
    90 390 v
    90 392 c
    90 394 v
    393 394 v
    394 392 c
    393 390 v
    239 543 v
    242 544 c
    244 543 v
    244 241 v
    242 240 c
    239 241 v
    0 0 z
  EndSpiro
EndSplineSet
Fore
SplineSet
42 300 m 0
 13 320 -4 355 -4 390 c 0
 -3 424 13 459 42 480 c 0
 437 480 l 0
 465 459 484 425 484 390 c 0
 484 354 465 320 437 300 c 0
 42 300 l 0
145 585 m 0
 167 613 203 630 240 630 c 0
 275 629 311 612 334 585 c 0
 334 195 l 0
 311 167 275 150 240 150 c 0
 203 149 167 166 145 195 c 0
 145 585 l 0
  Spiro
    42 300 v
    -4 390 c
    42 480 v
    437 480 v
    484 390 c
    437 300 v
    145 585 v
    240 630 c
    334 585 v
    334 195 v
    240 150 c
    145 195 v
    0 0 z
  EndSpiro
EndSplineSet
EndChar
StartChar: ,
Encoding: 44 44 14
Width: 394
InSpiro: 1
Flags: H
LayerCount: 2
Back
SplineSet
165 94 m 0
 166 94 167 93 168 93 c 0
 168 92 168 91 169 91 c 0
 93 -10 l 0
 92 -10 91 -10 91 -10 c 0
 90 -9 90 -9 90 -9 c 0
 89 -8 89 -7 90 -7 c 0
 165 94 l 0
  Spiro
    165 94 v
    168 93 c
    169 91 v
    93 -10 v
    90 -9 c
    90 -7 v
    0 0 z
  EndSpiro
EndSplineSet
Fore
SplineSet
117 180 m 0
 151 190 191 183 221 162 c 0
 249 141 266 106 268 72 c 0
 137 -100 l 0
 102 -110 62 -103 33 -82 c 0
 5 -61 -12 -27 -13 7 c 0
 117 180 l 0
  Spiro
    117 180 v
    221 162 c
    268 72 v
    137 -100 v
    33 -82 c
    -13 7 v
    0 0 z
  EndSpiro
EndSplineSet
EndChar
StartChar: -
Encoding: 45 45 22
Width: 619
InSpiro: 1
Flags: H
LayerCount: 2
Back
SplineSet
90 390 m 0
 90 392 l 0
 90 394 l 0
 393 394 l 0
 393 393 394 392 394 392 c 0
 394 391 393 390 393 390 c 0
 90 390 l 0
  Spiro
    90 390 v
    90 392 c
    90 394 v
    393 394 v
    394 392 c
    393 390 v
    0 0 z
  EndSpiro
EndSplineSet
Fore
SplineSet
42 300 m 0
 13 320 -4 355 -4 390 c 0
 -3 424 13 459 42 480 c 0
 437 480 l 0
 465 459 484 425 484 390 c 0
 484 354 465 320 437 300 c 0
 42 300 l 0
  Spiro
    42 300 v
    -4 390 c
    42 480 v
    437 480 v
    484 390 c
    437 300 v
    0 0 z
  EndSpiro
EndSplineSet
EndChar
StartChar: .
Encoding: 46 46 35
Width: 319
InSpiro: 1
Flags: H
LayerCount: 2
Back
SplineSet
92 85 m 0
 93 84 95 85 96 87 c 0
 98 88 99 90 99 92 c 0
 98 93 98 95 96 96 c 0
 95 98 93 98 92 99 c 0
 90 99 88 98 87 96 c 0
 85 95 85 93 85 92 c 0
 84 90 85 88 87 87 c 0
 88 85 90 84 92 85 c 0
  Spiro
    92 85 c
    99 92 c
    92 99 c
    85 92 c
    0 0 z
  EndSpiro
EndSplineSet
Fore
SplineSet
90 -5 m 0
 114 -5 139 5 157 22 c 0
 174 40 185 65 185 90 c 0
 184 114 174 139 157 157 c 0
 139 174 114 184 90 185 c 0
 65 185 40 174 22 157 c 0
 5 139 -4 114 -5 90 c 0
 -5 65 5 40 22 22 c 0
 40 5 65 -5 90 -5 c 0
  Spiro
    90 -5 c
    185 90 c
    90 185 c
    -5 90 c
    0 0 z
  EndSpiro
EndSplineSet
EndChar
StartChar: 0
Encoding: 48 48 0
Width: 619
InSpiro: 1
Flags: H
LayerCount: 2
Back
SplineSet
90 391 m 0
 89 454 86 518 106 578 c 0
 116 608 132 636 156 658 c 0
 179 679 210 692 242 693 c 0
 273 692 304 679 327 658 c 0
 351 636 367 608 377 578 c 0
 397 518 394 454 394 391 c 0
 393 328 397 263 377 203 c 0
 367 174 350 145 327 124 c 0
 304 103 273 90 242 90 c 0
 210 89 179 103 156 124 c 0
 133 145 116 174 106 203 c 0
 86 263 90 328 90 391 c 0
241 93 m 0
 272 92 302 106 325 127 c 0
 348 148 364 176 374 206 c 0
 393 265 389 329 389 392 c 0
 388 454 393 517 373 576 c 0
 364 606 348 634 325 655 c 0
 302 676 272 690 241 690 c 0
 209 689 179 676 157 655 c 0
 134 634 118 606 108 576 c 0
 89 517 94 454 94 392 c 0
 93 329 89 265 108 206 c 0
 118 177 133 149 156 128 c 0
 179 106 209 93 241 93 c 0
390 693 m 0
 390 693 391 693 392 693 c 0
 392 692 393 692 394 692 c 0
 93 90 l 0
 92 89 91 89 91 90 c 0
 90 90 90 90 90 91 c 0
 390 693 l 0
  Spiro
    90 391 c
    242 693 c
    394 391 c
    242 90 c
    241 93 c
    389 392 c
    241 690 c
    94 392 c
    390 693 v
    392 693 c
    394 692 v
    93 90 v
    91 90 c
    90 91 v
    0 0 z
  EndSpiro
EndSplineSet
Fore
SplineSet
-4 389 m 0
 -4 474 2 562 40 639 c 0
 59 677 86 712 120 737 c 0
 155 763 197 778 240 779 c 0
 282 778 324 763 359 737 c 0
 393 712 420 677 439 639 c 0
 477 562 484 474 484 389 c 0
 483 303 477 215 439 139 c 0
 420 101 393 66 359 40 c 0
 324 15 282 0 240 0 c 0
 197 0 155 15 120 40 c 0
 86 66 59 100 40 139 c 0
 2 215 -3 303 -4 389 c 0
239 179 m 0
 249 178 259 181 268 187 c 0
 277 192 285 199 291 208 c 0
 303 224 308 246 308 266 c 0
 309 308 294 348 295 390 c 0
 294 431 309 471 308 512 c 0
 307 533 302 554 290 571 c 0
 285 579 277 586 268 591 c 0
 259 597 249 600 239 600 c 0
 228 599 218 596 209 591 c 0
 200 586 193 579 187 570 c 0
 175 553 170 532 170 512 c 0
 169 471 184 431 184 390 c 0
 183 348 168 308 170 267 c 0
 170 246 175 225 187 208 c 0
 193 199 200 192 209 187 c 0
 218 182 228 179 239 179 c 0
326 770 m 0
 358 786 399 786 432 770 c 0
 463 754 487 724 495 690 c 0
 153 9 l 0
 120 -7 79 -7 47 9 c 0
 15 24 -7 54 -15 89 c 0
 326 770 l 0
  Spiro
    -4 389 c
    240 779 c
    484 389 c
    240 0 c
    239 179 c
    295 390 c
    239 600 c
    184 390 c
    326 770 v
    432 770 c
    495 690 v
    153 9 v
    47 9 c
    -15 89 v
    0 0 z
  EndSpiro
EndSplineSet
EndChar
StartChar: 1
Encoding: 49 49 1
Width: 319
InSpiro: 1
Flags: H
LayerCount: 2
Back
SplineSet
90 693 m 0
 90 693 91 694 92 694 c 0
 92 694 93 693 94 693 c 0
 94 90 l 0
 92 90 l 0
 90 90 l 0
 90 693 l 0
  Spiro
    90 693 v
    92 694 c
    94 693 v
    94 90 v
    92 90 c
    90 90 v
    0 0 z
  EndSpiro
EndSplineSet
Fore
SplineSet
-4 735 m 0
 18 762 54 780 90 780 c 0
 125 780 161 762 184 735 c 0
 184 44 l 0
 161 16 125 0 90 0 c 0
 54 0 18 16 -4 44 c 0
 -4 735 l 0
  Spiro
    -4 735 v
    90 780 c
    184 735 v
    184 44 v
    90 0 c
    -4 44 v
    0 0 z
  EndSpiro
EndSplineSet
EndChar
StartChar: 2
Encoding: 50 50 2
Width: 619
InSpiro: 1
Flags: H
LayerCount: 2
Back
SplineSet
92 629 m 0
 91 628 91 629 90 629 c 0
 90 629 90 629 90 630 c 0
 89 630 89 630 89 631 c 0
 89 631 89 631 90 632 c 0
 107 654 131 671 158 682 c 0
 184 692 213 696 242 693 c 0
 279 688 315 669 342 642 c 0
 369 615 387 579 394 542 c 0
 403 484 386 424 356 373 c 0
 326 323 284 281 243 240 c 0
 96 94 l 0
 393 94 l 0
 393 93 394 92 394 92 c 0
 394 91 393 90 393 90 c 0
 90 90 l 0
 90 92 l 0
 240 243 l 0
 280 283 321 325 351 375 c 0
 380 425 398 483 389 541 c 0
 383 578 365 613 339 640 c 0
 313 667 278 685 241 690 c 0
 213 693 184 689 158 679 c 0
 132 668 109 651 92 629 c 0
  Spiro
    92 629 v
    90 630 c
    90 632 v
    242 693 c
    394 542 c
    243 240 [
    96 94 v
    393 94 v
    394 92 c
    393 90 v
    90 90 v
    90 92 v
    240 243 ]
    389 541 c
    241 690 c
    0 0 z
  EndSpiro
EndSplineSet
Fore
SplineSet
133 538 m 0
 97 528 58 536 30 560 c 0
 3 581 -12 616 -12 651 c 0
 10 698 50 738 97 761 c 0
 145 784 200 790 252 779 c 0
 306 766 355 735 393 694 c 0
 432 654 460 605 483 554 c 0
 499 516 512 476 516 436 c 0
 521 395 515 353 498 315 c 0
 481 278 453 246 418 224 c 0
 384 201 345 188 306 176 c 0
 290 171 l 0
 437 180 l 0
 465 159 484 125 484 90 c 0
 484 54 465 20 437 0 c 0
 -3 0 l 0
 -41 90 l 0
 173 303 l 0
 204 334 236 364 261 400 c 0
 274 419 284 438 291 459 c 0
 297 480 300 503 296 525 c 0
 292 542 284 559 272 572 c 0
 260 586 244 596 227 600 c 0
 206 604 184 600 167 588 c 0
 149 577 137 558 133 538 c 0
  Spiro
    133 538 v
    30 560 c
    -12 651 v
    252 779 c
    483 554 c
    306 176 [
    290 171 v
    437 180 v
    484 90 c
    437 0 v
    -3 0 v
    -41 90 v
    173 303 ]
    296 525 c
    227 600 c
    0 0 z
  EndSpiro
EndSplineSet
EndChar
StartChar: 3
Encoding: 51 51 3
Width: 619
InSpiro: 1
Flags: H
LayerCount: 2
Back
SplineSet
92 629 m 0
 91 628 91 629 90 629 c 0
 90 629 90 629 90 630 c 0
 89 630 89 630 89 631 c 0
 89 631 89 631 90 632 c 0
 107 654 131 671 158 682 c 0
 184 692 213 696 242 693 c 0
 279 688 316 670 343 642 c 0
 370 615 387 579 394 542 c 0
 397 521 397 499 391 479 c 0
 386 458 375 439 360 425 c 0
 344 410 325 400 304 395 c 0
 284 390 263 389 242 390 c 0
 190 390 l 0
 189 390 189 391 189 392 c 0
 189 392 189 393 190 394 c 0
 242 394 l 0
 262 393 283 394 302 399 c 0
 322 404 341 413 356 428 c 0
 370 442 381 460 386 480 c 0
 391 499 392 520 389 541 c 0
 383 578 366 613 339 640 c 0
 313 667 278 685 241 690 c 0
 213 693 184 689 158 679 c 0
 132 668 109 651 92 629 c 0
190 390 m 0
 189 390 189 391 189 392 c 0
 189 392 189 393 190 394 c 0
 242 394 l 0
 263 394 284 393 305 388 c 0
 325 383 345 373 360 358 c 0
 375 343 386 324 391 304 c 0
 397 283 397 261 394 241 c 0
 387 203 369 167 342 140 c 0
 315 113 279 94 242 90 c 0
 213 86 184 90 158 100 c 0
 131 111 107 128 90 151 c 0
 89 151 89 151 89 152 c 0
 89 152 89 152 90 153 c 0
 90 153 90 153 90 153 c 0
 91 153 91 154 92 154 c 0
 109 131 132 114 158 103 c 0
 184 93 213 89 241 93 c 0
 278 97 313 115 339 142 c 0
 365 169 383 204 389 242 c 0
 392 262 392 283 386 303 c 0
 381 322 371 341 356 355 c 0
 341 369 322 379 303 384 c 0
 283 389 262 390 242 390 c 0
 190 390 l 0
  Spiro
    92 629 v
    90 630 c
    90 632 v
    242 693 c
    394 542 c
    242 390 [
    190 390 v
    189 392 c
    190 394 v
    242 394 ]
    389 541 c
    241 690 c
    190 390 v
    189 392 c
    190 394 v
    242 394 ]
    394 241 c
    242 90 c
    90 151 v
    90 153 c
    92 154 v
    241 93 c
    389 242 c
    242 390 [
    0 0 z
  EndSpiro
EndSplineSet
Fore
SplineSet
133 538 m 0
 97 528 58 536 30 560 c 0
 3 581 -12 616 -12 651 c 0
 13 696 53 733 100 755 c 0
 147 778 200 786 252 779 c 0
 308 770 362 743 402 702 c 0
 443 662 471 610 483 554 c 0
 490 519 491 484 483 450 c 0
 475 416 458 384 434 359 c 0
 409 334 377 317 343 309 c 0
 310 300 274 299 240 300 c 0
 142 300 l 0
 113 320 95 354 95 390 c 0
 95 425 113 459 142 480 c 0
 240 480 l 0
 246 480 253 480 260 481 c 0
 266 482 273 485 278 489 c 0
 284 493 288 499 291 505 c 0
 294 511 295 518 296 525 c 0
 297 543 289 562 276 576 c 0
 263 589 245 597 227 600 c 0
 206 602 185 597 168 585 c 0
 151 574 138 557 133 538 c 0
142 300 m 0
 113 320 95 354 95 390 c 0
 95 425 113 459 142 480 c 0
 240 480 l 0
 274 480 310 479 344 470 c 0
 378 461 410 444 434 420 c 0
 459 395 476 363 483 329 c 0
 491 294 490 259 483 225 c 0
 471 169 443 116 402 76 c 0
 361 35 308 8 252 0 c 0
 200 -7 146 0 100 23 c 0
 53 45 13 82 -12 128 c 0
 -12 162 3 197 30 219 c 0
 58 242 97 250 133 241 c 0
 138 221 151 204 168 192 c 0
 185 181 206 176 227 179 c 0
 245 181 263 189 276 203 c 0
 289 216 296 235 296 254 c 0
 295 260 294 267 291 273 c 0
 288 280 284 285 279 290 c 0
 273 294 267 297 260 298 c 0
 253 299 246 300 240 300 c 0
 142 300 l 0
  Spiro
    133 538 v
    30 560 c
    -12 651 v
    252 779 c
    483 554 c
    240 300 [
    142 300 v
    95 390 c
    142 480 v
    240 480 ]
    296 525 c
    227 600 c
    142 300 v
    95 390 c
    142 480 v
    240 480 ]
    483 225 c
    252 0 c
    -12 128 v
    30 219 c
    133 241 v
    227 179 c
    296 254 c
    240 300 [
    0 0 z
  EndSpiro
EndSplineSet
EndChar
StartChar: 4
Encoding: 52 52 4
Width: 619
InSpiro: 1
Flags: H
LayerCount: 2
Back
SplineSet
319 90 m 0
 318 89 317 89 317 90 c 0
 315 90 314 90 314 91 c 0
 314 683 l 0
 95 244 l 0
 393 244 l 0
 393 243 394 242 394 242 c 0
 394 241 393 240 393 240 c 0
 90 240 l 0
 90 241 l 0
 316 694 l 0
 319 694 l 0
 319 90 l 0
  Spiro
    319 90 v
    317 90 c
    314 91 v
    314 683 v
    95 244 v
    393 244 v
    394 242 c
    393 240 v
    90 240 v
    90 241 v
    316 694 v
    319 694 v
    0 0 z
  EndSpiro
EndSplineSet
Fore
SplineSet
409 44 m 0
 386 16 350 0 315 0 c 0
 278 0 242 16 220 45 c 0
 223 308 l 0
 239 330 l 0
 437 330 l 0
 465 309 484 275 484 240 c 0
 484 204 465 170 437 150 c 0
 -3 150 l 0
 -35 199 l 0
 273 810 l 0
 408 780 l 0
 409 44 l 0
  Spiro
    409 44 v
    315 0 c
    220 45 v
    223 308 v
    239 330 v
    437 330 v
    484 240 c
    437 150 v
    -3 150 v
    -35 199 v
    273 810 v
    408 780 v
    0 0 z
  EndSpiro
EndSplineSet
EndChar
StartChar: 5
Encoding: 53 53 5
Width: 619
InSpiro: 1
Flags: H
LayerCount: 2
Back
SplineSet
393 694 m 0
 393 693 394 692 394 692 c 0
 394 691 393 690 393 690 c 0
 94 690 l 0
 94 391 l 0
 93 390 92 390 92 390 c 0
 91 390 90 390 90 391 c 0
 90 694 l 0
 90 694 l 0
 393 694 l 0
93 390 m 0
 92 389 91 389 91 390 c 0
 90 390 90 390 90 391 c 0
 99 422 120 451 147 469 c 0
 175 487 209 496 242 493 c 0
 288 488 330 460 356 422 c 0
 383 384 394 337 394 291 c 0
 393 245 380 199 353 162 c 0
 327 125 286 97 242 90 c 0
 213 85 184 88 157 99 c 0
 130 109 107 127 90 151 c 0
 89 151 89 151 89 152 c 0
 89 152 89 152 90 153 c 0
 90 153 90 153 91 153 c 0
 92 153 92 153 93 153 c 0
 109 130 132 112 158 101 c 0
 184 91 213 88 241 93 c 0
 285 100 324 128 350 165 c 0
 376 201 388 247 389 292 c 0
 389 337 378 383 352 420 c 0
 327 457 285 485 241 490 c 0
 208 493 175 485 148 467 c 0
 121 448 101 421 93 390 c 0
  Spiro
    393 694 v
    394 692 c
    393 690 v
    94 690 v
    94 391 v
    92 390 c
    90 391 v
    90 694 v
    90 694 v
    93 390 v
    91 390 c
    90 391 v
    242 493 c
    394 291 c
    242 90 c
    90 151 v
    90 153 c
    93 153 v
    241 93 c
    389 292 c
    241 490 c
    0 0 z
  EndSpiro
EndSplineSet
Fore
SplineSet
437 780 m 0
 465 759 484 725 484 690 c 0
 484 654 465 620 437 600 c 0
 183 600 l 0
 184 345 l 0
 161 317 125 300 90 300 c 0
 54 300 18 317 -4 345 c 0
 -3 780 l 0
 -3 780 l 0
 437 780 l 0
166 321 m 0
 136 299 97 292 63 303 c 0
 29 313 0 339 -13 372 c 0
 -5 433 27 490 75 529 c 0
 123 567 187 585 249 579 c 0
 316 571 380 533 422 479 c 0
 464 425 485 356 484 288 c 0
 482 221 461 155 421 103 c 0
 380 50 321 12 256 1 c 0
 203 -8 148 0 100 22 c 0
 52 45 11 84 -13 132 c 0
 -12 166 5 201 33 222 c 0
 62 243 102 250 137 239 c 0
 139 219 150 200 166 189 c 0
 182 177 203 173 223 178 c 0
 234 180 245 186 254 193 c 0
 264 201 271 211 277 221 c 0
 289 242 294 266 295 291 c 0
 295 314 293 338 282 358 c 0
 277 369 270 378 261 385 c 0
 252 393 241 398 230 400 c 0
 219 401 209 400 199 396 c 0
 190 392 181 386 175 378 c 0
 169 370 164 361 163 351 c 0
 161 341 162 330 166 321 c 0
  Spiro
    437 780 v
    484 690 c
    437 600 v
    183 600 v
    184 345 v
    90 300 c
    -4 345 v
    -3 780 v
    -3 780 v
    166 321 v
    63 303 c
    -13 372 v
    249 579 c
    484 288 c
    256 1 c
    -13 132 v
    33 222 c
    137 239 v
    223 178 c
    295 291 c
    230 400 c
    0 0 z
  EndSpiro
EndSplineSet
EndChar
StartChar: 6
Encoding: 54 54 6
Width: 619
InSpiro: 1
Flags: H
LayerCount: 2
Back
SplineSet
394 632 m 0
 394 631 393 630 393 630 c 0
 392 629 392 629 391 629 c 0
 390 629 390 629 390 630 c 0
 374 653 351 672 325 683 c 0
 299 694 269 696 242 690 c 0
 212 683 186 666 165 644 c 0
 144 623 129 596 118 568 c 0
 97 512 95 451 94 391 c 0
 92 358 91 324 94 292 c 0
 96 246 106 200 130 162 c 0
 142 142 158 126 177 113 c 0
 196 101 219 93 242 93 c 0
 265 92 288 98 307 110 c 0
 327 122 344 139 356 158 c 0
 382 197 390 244 389 291 c 0
 387 336 376 381 351 419 c 0
 339 438 323 454 304 467 c 0
 285 479 263 487 241 490 c 0
 218 492 195 488 174 478 c 0
 154 468 136 453 123 434 c 0
 110 416 102 394 98 371 c 0
 94 349 93 326 94 304 c 0
 94 291 l 0
 93 290 92 290 92 290 c 0
 91 290 90 290 90 291 c 0
 90 304 l 0
 90 327 90 350 94 373 c 0
 98 396 107 418 120 437 c 0
 134 456 152 472 173 481 c 0
 195 491 218 495 242 493 c 0
 264 490 286 482 306 469 c 0
 325 457 341 440 354 421 c 0
 380 384 392 337 394 292 c 0
 395 244 386 195 360 155 c 0
 347 136 329 119 309 107 c 0
 288 95 264 89 241 90 c 0
 218 90 195 98 176 111 c 0
 156 123 140 140 128 160 c 0
 103 198 93 245 90 291 c 0
 87 324 88 358 90 392 c 0
 92 452 94 514 116 570 c 0
 127 598 142 625 163 647 c 0
 184 669 211 685 241 693 c 0
 269 700 300 697 327 687 c 0
 354 676 378 656 394 632 c 0
  Spiro
    394 632 v
    393 630 c
    390 630 v
    242 690 c
    94 391 c
    94 292 c
    242 93 c
    389 291 c
    241 490 c
    94 304 [
    94 291 v
    92 290 c
    90 291 v
    90 304 ]
    242 493 c
    394 292 c
    241 90 c
    90 291 c
    90 392 c
    241 693 c
    0 0 z
  EndSpiro
EndSplineSet
Fore
SplineSet
494 641 m 0
 490 606 470 573 441 554 c 0
 410 534 370 529 336 543 c 0
 333 560 324 576 310 586 c 0
 296 597 279 603 262 602 c 0
 240 600 220 588 206 572 c 0
 192 556 183 535 179 514 c 0
 171 472 180 428 184 386 c 0
 186 356 185 325 184 296 c 0
 182 270 180 244 189 220 c 0
 193 209 200 198 210 190 c 0
 220 182 233 177 246 179 c 0
 256 180 265 184 273 191 c 0
 281 198 286 207 290 217 c 0
 297 236 297 257 296 278 c 0
 294 308 290 339 274 365 c 0
 267 378 256 390 243 398 c 0
 230 405 215 409 200 408 c 0
 197 407 195 407 193 406 c 0
 191 405 189 404 187 402 c 0
 186 401 185 398 184 396 c 0
 184 394 183 392 184 390 c 0
 184 245 l 0
 161 217 125 200 90 200 c 0
 54 200 18 217 -4 245 c 0
 -4 390 l 0
 -3 425 -3 462 8 496 c 0
 20 530 43 561 73 580 c 0
 104 599 141 606 176 603 c 0
 212 600 247 587 279 571 c 0
 330 543 377 506 413 460 c 0
 449 414 474 358 483 301 c 0
 493 226 476 147 429 88 c 0
 406 59 376 35 342 19 c 0
 308 3 270 -3 233 0 c 0
 166 5 104 44 64 97 c 0
 23 150 2 216 -4 283 c 0
 -7 319 -6 356 -4 393 c 0
 1 471 13 551 47 621 c 0
 65 657 87 690 116 717 c 0
 144 744 179 765 217 777 c 0
 271 793 331 788 382 763 c 0
 433 738 473 693 494 641 c 0
  Spiro
    494 641 v
    441 554 c
    336 543 v
    262 602 c
    184 386 c
    184 296 c
    246 179 c
    296 278 c
    200 408 c
    184 390 [
    184 245 v
    90 200 c
    -4 245 v
    -4 390 ]
    279 571 c
    483 301 c
    233 0 c
    -4 283 c
    -4 393 c
    217 777 c
    0 0 z
  EndSpiro
EndSplineSet
EndChar
StartChar: 7
Encoding: 55 55 7
Width: 619
InSpiro: 1
Flags: H
LayerCount: 2
Back
SplineSet
90 690 m 0
 90 692 l 0
 90 694 l 0
 394 694 l 0
 394 693 l 0
 168 90 l 0
 167 89 166 89 166 90 c 0
 165 90 164 90 164 91 c 0
 389 690 l 0
 90 690 l 0
  Spiro
    90 690 v
    90 692 c
    90 694 v
    394 694 v
    394 693 v
    168 90 v
    166 90 c
    164 91 v
    389 690 v
    0 0 z
  EndSpiro
EndSplineSet
Fore
SplineSet
42 600 m 0
 13 620 -4 655 -4 690 c 0
 -3 724 13 759 42 780 c 0
 483 780 l 0
 509 742 l 0
 236 16 l 0
 205 -3 165 -7 131 5 c 0
 97 17 71 45 60 79 c 0
 256 600 l 0
 42 600 l 0
  Spiro
    42 600 v
    -4 690 c
    42 780 v
    483 780 v
    509 742 v
    236 16 v
    131 5 c
    60 79 v
    256 600 v
    0 0 z
  EndSpiro
EndSplineSet
EndChar
StartChar: 8
Encoding: 56 56 8
Width: 619
InSpiro: 1
Flags: H
LayerCount: 2
Back
SplineSet
242 390 m 0
 202 389 162 406 134 434 c 0
 106 462 89 502 90 542 c 0
 90 581 106 620 134 648 c 0
 162 676 201 692 241 693 c 0
 280 693 320 677 348 649 c 0
 377 621 393 581 394 542 c 0
 394 502 377 462 349 434 c 0
 321 406 281 389 242 390 c 0
389 541 m 0
 389 579 373 618 346 645 c 0
 319 673 280 689 242 690 c 0
 203 690 164 673 137 646 c 0
 109 618 93 579 94 541 c 0
 94 502 109 464 137 436 c 0
 164 409 202 393 241 393 c 0
 279 392 318 408 345 436 c 0
 372 463 388 502 389 541 c 0
241 390 m 0
 202 389 164 373 137 346 c 0
 109 318 94 280 94 242 c 0
 93 203 109 164 137 136 c 0
 164 109 203 92 242 93 c 0
 280 93 319 109 346 137 c 0
 373 164 389 203 389 242 c 0
 388 280 372 319 345 346 c 0
 318 374 279 390 241 390 c 0
394 241 m 0
 393 201 377 161 348 133 c 0
 320 105 280 89 241 90 c 0
 201 90 162 106 134 134 c 0
 106 162 90 201 90 241 c 0
 89 280 106 320 134 348 c 0
 162 376 202 392 242 393 c 0
 281 393 321 376 349 348 c 0
 377 320 394 280 394 241 c 0
  Spiro
    242 390 c
    90 542 c
    241 693 c
    394 542 c
    389 541 c
    242 690 c
    94 541 c
    241 393 c
    241 390 c
    94 242 c
    242 93 c
    389 242 c
    394 241 c
    241 90 c
    90 241 c
    242 393 c
    0 0 z
  EndSpiro
EndSplineSet
Fore
SplineSet
240 300 m 0
 176 299 113 325 68 369 c 0
 22 413 -4 476 -4 540 c 0
 -3 603 22 665 68 709 c 0
 113 753 175 778 239 779 c 0
 302 779 365 754 411 710 c 0
 456 666 483 603 484 540 c 0
 484 476 457 413 411 369 c 0
 366 325 303 299 240 300 c 0
295 539 m 0
 295 554 289 569 279 581 c 0
 270 592 255 599 240 600 c 0
 224 600 209 592 199 581 c 0
 189 569 183 554 184 539 c 0
 184 523 189 508 199 497 c 0
 209 486 223 479 239 479 c 0
 254 478 269 485 279 497 c 0
 289 508 294 523 295 539 c 0
239 300 m 0
 223 299 209 292 199 281 c 0
 189 270 184 255 184 240 c 0
 183 224 189 209 199 197 c 0
 209 186 224 178 240 179 c 0
 255 179 270 186 279 197 c 0
 289 209 295 224 295 240 c 0
 294 255 289 270 279 281 c 0
 269 293 254 300 239 300 c 0
484 239 m 0
 483 175 456 112 411 68 c 0
 365 24 302 0 239 0 c 0
 175 0 113 25 68 69 c 0
 22 113 -3 175 -4 239 c 0
 -4 302 22 365 68 409 c 0
 113 453 176 479 240 479 c 0
 303 478 366 453 411 409 c 0
 457 365 484 302 484 239 c 0
  Spiro
    240 300 c
    -4 540 c
    239 779 c
    484 540 c
    295 539 c
    240 600 c
    184 539 c
    239 479 c
    239 300 c
    184 240 c
    240 179 c
    295 240 c
    484 239 c
    239 0 c
    -4 239 c
    240 479 c
    0 0 z
  EndSpiro
EndSplineSet
EndChar
StartChar: 9
Encoding: 57 57 9
Width: 619
InSpiro: 1
Flags: H
LayerCount: 2
Back
SplineSet
90 151 m 0
 89 151 89 151 89 152 c 0
 89 152 89 152 90 153 c 0
 90 153 90 153 91 153 c 0
 92 153 92 153 93 153 c 0
 108 129 131 110 157 99 c 0
 183 88 213 86 241 93 c 0
 270 99 296 116 317 138 c 0
 338 159 353 186 364 214 c 0
 385 270 387 331 389 392 c 0
 390 424 391 458 389 491 c 0
 386 536 376 582 352 620 c 0
 340 640 324 656 305 669 c 0
 286 681 263 689 241 690 c 0
 217 690 194 684 175 672 c 0
 155 660 138 643 126 624 c 0
 100 585 92 538 94 492 c 0
 95 446 106 400 131 363 c 0
 143 344 159 327 178 315 c 0
 197 303 219 295 242 293 c 0
 264 290 287 295 308 304 c 0
 329 314 346 330 359 348 c 0
 372 367 380 389 384 411 c 0
 388 434 389 457 389 480 c 0
 389 493 l 0
 389 493 390 494 392 494 c 0
 392 493 393 493 394 493 c 0
 394 480 l 0
 393 456 393 432 389 409 c 0
 385 386 376 364 363 345 c 0
 349 326 330 310 309 300 c 0
 288 291 264 287 241 290 c 0
 218 292 196 300 177 313 c 0
 158 325 141 342 128 361 c 0
 103 399 91 445 90 491 c 0
 88 538 97 587 123 626 c 0
 136 646 153 663 174 675 c 0
 194 687 218 693 242 693 c 0
 265 692 287 684 307 672 c 0
 326 659 342 642 355 623 c 0
 380 584 390 538 394 492 c 0
 396 458 395 424 394 391 c 0
 391 330 388 268 367 212 c 0
 356 183 340 157 319 135 c 0
 298 113 271 97 242 90 c 0
 213 83 183 85 156 96 c 0
 129 107 105 126 90 151 c 0
  Spiro
    90 151 v
    90 153 c
    93 153 v
    241 93 c
    389 392 c
    389 491 c
    241 690 c
    94 492 c
    242 293 c
    389 480 [
    389 493 v
    392 494 c
    394 493 v
    394 480 ]
    241 290 c
    90 491 c
    242 693 c
    394 492 c
    394 391 c
    242 90 c
    0 0 z
  EndSpiro
EndSplineSet
Fore
SplineSet
-14 138 m 0
 -11 172 8 205 38 225 c 0
 68 244 108 249 143 236 c 0
 145 218 154 202 168 192 c 0
 182 181 199 175 217 177 c 0
 238 178 258 190 272 206 c 0
 286 222 295 243 299 264 c 0
 307 306 298 350 295 393 c 0
 292 422 293 453 295 483 c 0
 296 508 298 534 289 558 c 0
 285 570 278 581 268 588 c 0
 258 596 245 601 233 600 c 0
 222 598 213 594 205 587 c 0
 198 580 192 571 188 561 c 0
 181 542 181 521 183 501 c 0
 184 470 188 438 203 412 c 0
 211 399 221 387 234 379 c 0
 248 372 263 368 279 371 c 0
 281 371 283 371 285 372 c 0
 287 373 289 375 291 376 c 0
 292 378 293 380 294 383 c 0
 294 385 295 387 295 390 c 0
 295 535 l 0
 317 563 353 580 390 580 c 0
 425 579 461 562 484 535 c 0
 484 390 l 0
 483 353 483 317 471 282 c 0
 459 248 436 218 406 198 c 0
 375 179 338 172 302 175 c 0
 266 178 231 191 200 208 c 0
 148 235 101 272 65 318 c 0
 30 365 5 420 -3 478 c 0
 -13 552 4 630 50 689 c 0
 73 719 103 743 136 759 c 0
 170 774 208 782 246 779 c 0
 312 773 374 735 415 682 c 0
 456 629 477 562 484 496 c 0
 487 459 486 422 484 386 c 0
 478 307 466 227 431 156 c 0
 414 121 391 88 362 61 c 0
 334 34 299 13 262 2 c 0
 207 -14 147 -9 97 15 c 0
 46 40 6 85 -14 138 c 0
  Spiro
    -14 138 v
    38 225 c
    143 236 v
    217 177 c
    295 393 c
    295 483 c
    233 600 c
    183 501 c
    279 371 c
    295 390 [
    295 535 v
    390 580 c
    484 535 v
    484 390 ]
    200 208 c
    -3 478 c
    246 779 c
    484 496 c
    484 386 c
    262 2 c
    0 0 z
  EndSpiro
EndSplineSet
EndChar
StartChar: A
Encoding: 65 65 48
Width: 619
InSpiro: 1
Flags: H
LayerCount: 2
Back
SplineSet
93 90 m 0
 92 89 91 89 91 90 c 0
 90 90 90 90 90 91 c 0
 240 694 l 0
 243 694 l 0
 394 91 l 0
 393 90 392 90 392 90 c 0
 391 89 390 89 390 90 c 0
 242 683 l 0
 93 90 l 0
  Spiro
    93 90 o
    92.0379 89.3337 o
    91.2957 89.3337 o
    91 90 o
    90.2967 90.0369 o
    90.0369 90.2967 o
    90 91 o
    240 694 o
    243 694 o
    394 91 o
    393.038 90.2967 o
    392.296 90.0369 o
    392 90 o
    391.038 89.3337 o
    390.296 89.3337 o
    390 90 o
    242 683 o
    0 0 z
  EndSpiro
165 240 m 0
 164 240 164 241 164 242 c 0
 164 242 164 243 165 244 c 0
 318 244 l 0
 318 243 319 242 319 242 c 0
 319 241 318 240 318 240 c 0
 165 240 l 0
  Spiro
    93 90 v
    91 90 c
    90 91 v
    240 694 v
    243 694 v
    394 91 v
    392 90 c
    390 90 v
    242 683 v
    165 240 v
    164 242 c
    165 244 v
    318 244 v
    319 242 c
    318 240 v
    0 0 z
  EndSpiro
EndSplineSet
Fore
SplineSet
198 381 m 0
 179.787824556 372.557482971 165.043059841 356.991966262 157.436310899 338.41518509 c 0
 149.829561957 319.838403918 149.300895629 298.795217425 153.996341466 279.2782449 c 0
 158.691787302 259.761272374 168.297064097 241.752855028 179.323555049 224.978591245 c 0
 190.350046001 208.204327462 202.82432844 192.414144484 213.744021737 175.570162577 c 0
 224.663715926 158.726180582 234.039867979 140.600772546 238.579218192 121.046904635 c 0
 243.118568406 101.493036724 242.541533873 80.5519710486 235.374963191 61.8009786671 c 0
 228.208392508 43.0499862855 214.478050922 26.9718213894 197.308035627 16.5723009482 c 0
 180.138020332 6.17278050696 160.014173892 1.54670425753 140 0 c 0
 127.388640523 -0.974611025463 114.724040765 -1.06132709424 102.075444445 -0.965068963 c 0
 90.3212416887 -0.875617330352 78.4943672029 -0.459432177877 67 2 c 0
 55.3764746428 4.48706795072 44.253628143 9.12731679646 34.104521407 15.315004667 c 0
 23.9806877546 21.4872840926 14.7291780808 29.1198232011 6.902485593 38.026670333 c 0
 -0.92589463189 46.9354381249 -7.25147531107 57.132562685 -12 68 c 0
 -26.9007970704 102.101850304 -26.5387948006 141.069358753 -20.4427211831 177.781861173 c 0
 -14.3466475656 214.494363593 -2.79949979186 250.049122147 8.44959266367 285.52344901 c 0
 30.9477775756 356.472102746 49.9643478765 428.697805238 59.5715359126 502.505540126 c 0
 69.1787303308 576.313281977 71.2918985834 651.44662866 89.68050847 723.569717669 c 0
 98.8748134132 759.631262174 112.509765628 794.837072422 132.997913041 825.904837888 c 0
 153.486060454 856.972603353 181.040011936 883.719681072 214 901 c 0
 240.804507219 915.053115392 271.024390131 922.695960702 301.288203888 922.42533852 c 0
 331.552017645 922.154716338 361.680002786 913.940863633 388 899 c 0
 419.62746141 881.046290349 445.44642872 853.581689077 463.269291993 821.880308188 c 0
 481.092155266 790.1789273 491.116510664 754.499069908 495.707991295 718.422064612 c 0
 504.890952557 646.268054021 493.784700353 573.298091209 488.591830199 500.747680311 c 0
 483.398966409 428.197266078 486.214410432 355.214231858 495.826229156 283.116094709 c 0
 500.632138518 247.06702613 506.520933336 211.088054965 508.316247527 174.764385586 c 0
 510.111561717 138.440716208 507.591347542 100.856384341 492 68 c 0
 486.84593543 57.1385984199 480.230033152 46.9490261704 472.172366481 38.026670333 c 0
 464.143690138 29.1364158511 454.748216298 21.4975138598 444.487960519 15.315004667 c 0
 434.421095593 9.24902675317 423.454656326 4.63224351763 412 2 c 0
 400.315589569 -0.685040278666 388.238313456 -1.42584052333 376.258222555 -0.965068963 c 0
 364.213433975 -0.501809036694 352.009749896 1.23171110408 341.077446445 6.308745963 c 0
 327.531344539 12.5996463106 316.750256528 24.6530475302 312.327889712 38.9189150387 c 0
 307.905522895 53.1847825471 309.50643756 68.7563979056 314 83 c 0
 322.519518953 110.004996507 339.512373744 133.436167817 351.757279651 158.968780665 c 0
 364.002185558 184.501393513 371.938735869 212.496109624 371.302229089 240.805947113 c 0
 370.665722345 269.115784488 361.761449594 297.109194938 346.411278851 320.904662809 c 0
 331.061108108 344.70013068 309.495909329 364.678853928 284 377 c 0
 270.646053244 383.453424587 256.152472036 387.720809211 241.352972196 388.695174296 c 0
 226.553472355 389.66953938 211.45604454 387.237743839 198 381 c 0
  Spiro
    198 381 o
    140 0 o
    102.075 -0.965069 o
    67 2 o
    34.1045 15.315 o
    6.90249 38.0267 o
    -12 68 o
    214 901 o
    388 899 o
    492 68 o
    472.172 38.0267 o
    444.488 15.315 o
    412 2 o
    376.258 -0.965069 o
    341.077 6.30875 o
    314 83 o
    284 377 o
    0 0 z
  EndSpiro
67 2 m 1
 -12 68 l 1025
  Spiro
    67 2 {
    -12 68 v
    0 0 z
  EndSpiro
492 68 m 1
 412 2 l 1025
  Spiro
    492 68 {
    412 2 c
    0 0 z
  EndSpiro
250 107 m 1024
  Spiro
    250 107 {
    0 0 z
  EndSpiro
EndSplineSet
EndChar
StartChar: B
Encoding: 66 66 49
Width: 619
InSpiro: 1
Flags: H
LayerCount: 2
Back
SplineSet
90 390 m 0
 90 394 l 0
 167 394 l 0
 192 394 217 393 242 389 c 0
 267 385 291 377 313 364 c 0
 335 351 353 333 367 312 c 0
 381 291 390 267 394 242 c 0
 399 205 392 166 374 133 c 0
 357 100 329 73 296 57 c 0
 262 40 224 35 187 41 c 0
 150 47 116 65 90 92 c 0
 90 90 l 0
 90 694 l 0
 90 691 l 0
 116 717 150 735 187 742 c 0
 224 748 263 742 296 726 c 0
 329 709 357 682 375 649 c 0
 392 616 399 577 394 541 c 0
 390 516 381 491 367 470 c 0
 353 449 334 432 313 419 c 0
 291 406 267 398 242 394 c 0
 217 390 192 389 167 390 c 0
 90 390 l 0
 90 394 l 0
 167 394 l 0
 191 393 216 394 240 398 c 0
 265 402 288 410 310 422 c 0
 331 435 349 452 363 473 c 0
 376 493 385 517 389 542 c 0
 394 577 387 615 371 647 c 0
 354 679 327 706 294 722 c 0
 262 738 225 744 189 739 c 0
 153 733 119 716 94 691 c 0
 94 92 l 0
 119 66 153 50 189 44 c 0
 225 39 262 45 294 61 c 0
 326 77 353 104 370 136 c 0
 387 168 393 205 389 241 c 0
 385 265 376 289 363 310 c 0
 349 330 331 348 310 360 c 0
 289 373 265 381 240 385 c 0
 216 389 191 390 167 390 c 0
 90 390 l 0
  Spiro
    90 390 v
    90 394 v
    167 394 ]
    394 242 c
    90 92 v
    90 90 v
    90 694 v
    90 691 v
    394 541 c
    167 390 [
    90 390 v
    90 394 v
    167 394 ]
    389 542 c
    94 691 v
    94 92 v
    389 241 c
    167 390 [
    0 0 z
  EndSpiro
EndSplineSet
Fore
SplineSet
-3 300 m 0
 -3 480 l 0
 165 480 l 0
 201 480 238 479 273 473 c 0
 309 466 344 453 375 433 c 0
 405 413 431 386 449 355 c 0
 468 323 479 288 483 252 c 0
 489 188 473 122 438 68 c 0
 402 15 348 -25 287 -44 c 0
 226 -62 158 -60 99 -35 c 0
 39 -11 -10 33 -41 90 c 0
 -3 0 l 0
 -3 780 l 0
 -41 689 l 0
 -10 745 39 791 99 815 c 0
 158 839 226 842 287 824 c 0
 349 805 403 764 438 710 c 0
 473 656 489 590 483 527 c 0
 479 490 467 455 449 424 c 0
 431 392 405 365 374 345 c 0
 344 325 309 313 273 306 c 0
 237 300 201 299 165 300 c 0
 -3 300 l 0
 -3 480 l 0
 165 480 l 0
 192 479 219 481 244 492 c 0
 256 498 267 506 276 516 c 0
 285 526 292 538 296 552 c 0
 299 566 299 582 295 597 c 0
 290 612 282 626 270 636 c 0
 259 646 244 653 229 656 c 0
 214 659 198 657 184 652 c 0
 184 127 l 0
 198 121 214 120 229 122 c 0
 244 125 258 132 270 143 c 0
 281 153 290 166 294 181 c 0
 299 196 299 212 296 227 c 0
 292 240 286 252 277 262 c 0
 268 273 257 281 244 287 c 0
 220 298 192 300 165 300 c 0
 -3 300 l 0
  Spiro
    -3 300 v
    -3 480 v
    165 480 ]
    483 252 c
    -41 90 v
    -3 0 v
    -3 780 v
    -41 689 v
    483 527 c
    165 300 [
    -3 300 v
    -3 480 v
    165 480 ]
    296 552 c
    184 652 v
    184 127 v
    296 227 c
    165 300 [
    0 0 z
  EndSpiro
EndSplineSet
EndChar
StartChar: C
Encoding: 67 67 50
Width: 619
InSpiro: 1
Flags: H
LayerCount: 2
Back
SplineSet
394 632 m 0
 393 631 393 630 393 630 c 0
 392 629 392 629 391 629 c 0
 390 629 390 629 390 630 c 0
 374 653 351 672 325 683 c 0
 299 693 269 696 242 690 c 0
 212 683 185 667 164 645 c 0
 143 624 127 597 117 569 c 0
 95 512 93 451 94 391 c 0
 94 330 96 269 117 213 c 0
 128 185 143 158 164 137 c 0
 185 115 212 99 242 93 c 0
 269 86 299 89 325 99 c 0
 351 110 374 129 390 153 c 0
 390 153 390 153 391 153 c 0
 392 153 392 153 393 153 c 0
 393 152 393 151 394 151 c 0
 377 126 354 107 327 96 c 0
 299 85 269 83 241 90 c 0
 211 96 184 113 162 135 c 0
 141 156 125 183 114 211 c 0
 92 268 89 331 90 392 c 0
 90 452 92 514 114 571 c 0
 125 599 141 626 163 648 c 0
 184 669 211 686 241 693 c 0
 269 699 299 697 327 686 c 0
 354 675 377 656 394 632 c 0
  Spiro
    394 632 v
    393 630 c
    390 630 v
    242 690 c
    94 391 c
    242 93 c
    390 153 v
    393 153 c
    394 151 v
    241 90 c
    90 392 c
    241 693 c
    0 0 z
  EndSpiro
EndSplineSet
Fore
SplineSet
494 642 m 0
 491 606 471 573 442 554 c 0
 411 533 371 529 337 542 c 0
 334 559 325 576 311 587 c 0
 297 598 278 604 261 602 c 0
 240 599 221 587 208 571 c 0
 194 555 187 534 183 514 c 0
 176 473 183 430 184 389 c 0
 184 347 176 305 183 264 c 0
 187 243 195 223 208 207 c 0
 221 191 240 179 261 177 c 0
 278 174 297 180 311 191 c 0
 325 202 334 219 337 237 c 0
 371 249 411 245 442 225 c 0
 471 205 491 172 494 137 c 0
 472 85 431 41 381 17 c 0
 331 -7 271 -12 218 2 c 0
 179 12 143 33 114 60 c 0
 84 87 60 120 42 156 c 0
 7 228 -4 309 -4 390 c 0
 -3 470 7 551 43 623 c 0
 60 659 84 692 114 718 c 0
 143 745 179 766 218 777 c 0
 271 791 331 786 381 761 c 0
 431 737 472 693 494 642 c 0
  Spiro
    494 642 v
    442 554 c
    337 542 v
    261 602 c
    184 389 c
    261 177 c
    337 237 v
    442 225 c
    494 137 v
    218 2 c
    -4 390 c
    218 777 c
    0 0 z
  EndSpiro
EndSplineSet
EndChar
StartChar: D
Encoding: 68 68 51
Width: 619
InSpiro: 1
Flags: H
LayerCount: 2
Back
SplineSet
94 690 m 0
 94 94 l 0
 171 94 248 127 302 182 c 0
 357 237 389 314 389 392 c 0
 389 469 357 546 302 601 c 0
 248 656 171 689 94 690 c 0
394 392 m 0
 394 312 361 233 304 177 c 0
 248 121 169 89 90 90 c 0
 90 90 l 0
 90 694 l 0
 90 694 l 0
 169 694 248 662 304 606 c 0
 361 550 394 471 394 392 c 0
  Spiro
    94 690 v
    94 94 v
    389 392 c
    394 392 c
    90 90 v
    90 90 v
    90 694 v
    90 694 v
    0 0 z
  EndSpiro
EndSplineSet
Fore
SplineSet
183 600 m 0
 183 180 l 0
 251 226 295 307 295 390 c 0
 295 472 251 553 183 600 c 0
484 390 m 0
 484 270 427 152 334 78 c 0
 241 3 113 -26 -3 0 c 0
 -3 0 l 0
 -3 780 l 0
 -3 780 l 0
 113 806 241 776 334 701 c 0
 427 627 484 509 484 390 c 0
  Spiro
    183 600 v
    183 180 v
    295 390 c
    484 390 c
    -3 0 v
    -3 0 v
    -3 780 v
    -3 780 v
    0 0 z
  EndSpiro
EndSplineSet
EndChar
StartChar: E
Encoding: 69 69 52
Width: 619
InSpiro: 1
Flags: H
LayerCount: 2
Back
SplineSet
393 694 m 0
 393 693 394 692 394 692 c 0
 394 691 393 690 393 690 c 0
 94 690 l 0
 94 94 l 0
 393 94 l 0
 393 93 394 92 394 92 c 0
 394 91 393 90 393 90 c 0
 90 90 l 0
 90 90 l 0
 90 694 l 0
 90 694 l 0
 393 694 l 0
90 390 m 0
 90 394 l 0
 393 394 l 0
 393 393 394 392 394 392 c 0
 394 391 393 390 393 390 c 0
 90 390 l 0
  Spiro
    393 694 v
    394 692 c
    393 690 v
    94 690 v
    94 94 v
    393 94 v
    394 92 c
    393 90 v
    90 90 v
    90 90 v
    90 694 v
    90 694 v
    90 390 v
    90 394 v
    393 394 v
    394 392 c
    393 390 v
    0 0 z
  EndSpiro
EndSplineSet
Fore
SplineSet
437 780 m 0
 465 759 484 725 484 690 c 0
 484 654 465 620 437 600 c 0
 183 600 l 0
 183 180 l 0
 437 180 l 0
 465 159 484 125 484 90 c 0
 484 54 465 20 437 0 c 0
 -3 0 l 0
 -3 0 l 0
 -3 780 l 0
 -3 780 l 0
 437 780 l 0
  Spiro
    437 780 o
    461.609 755.139 o
    478.049 724.189 o
    484 690 o
    478.049 655.144 o
    461.609 624.194 o
    437 600 o
    183 600 o
    183 180 o
    437 180 o
    461.609 155.139 o
    478.049 124.189 o
    484 90 o
    478.049 55.1444 o
    461.609 24.1942 o
    437 0 o
    -3 0 o
    -3 0 o
    -3 780 o
    -3 780 o
    0 0 z
  EndSpiro
-3 300 m 0
 -3 480 l 0
 437 480 l 0
 465 459 484 425 484 390 c 0
 484 354 465 320 437 300 c 0
 -3 300 l 0
  Spiro
    437 780 v
    484 690 c
    437 600 v
    183 600 v
    183 180 v
    437 180 v
    484 90 c
    437 0 v
    -3 0 v
    -3 0 v
    -3 780 v
    -3 780 v
    -3 300 v
    -3 480 v
    437 480 v
    484 390 c
    437 300 v
    0 0 z
  EndSpiro
EndSplineSet
EndChar
StartChar: F
Encoding: 70 70 53
Width: 619
InSpiro: 1
Flags: H
LayerCount: 2
Back
SplineSet
94 90 m 0
 93 89 93 89 92 89 c 0
 91 89 91 89 91 90 c 0
 90 90 90 90 90 91 c 0
 90 694 l 0
 90 694 l 0
 393 694 l 0
 393 693 394 692 394 692 c 0
 394 691 393 690 393 690 c 0
 94 690 l 0
 94 90 l 0
90 390 m 0
 90 394 l 0
 318 394 l 0
 318 393 319 392 319 392 c 0
 319 391 318 390 318 390 c 0
 90 390 l 0
  Spiro
    94 90 v
    91 90 c
    90 91 v
    90 694 v
    90 694 v
    393 694 v
    394 692 c
    393 690 v
    94 690 v
    90 390 v
    90 394 v
    318 394 v
    319 392 c
    318 390 v
    0 0 z
  EndSpiro
EndSplineSet
Fore
SplineSet
184 44 m 0
 160 16 125 0 89 0 c 0
 53 0 18 17 -4 45 c 0
 -3 780 l 0
 -3 780 l 0
 437 780 l 0
 465 759 484 725 484 690 c 0
 484 654 465 620 437 600 c 0
 183 600 l 0
 184 44 l 0
  Spiro
    184 44 o
    156.734 20.1677 o
    124.262 5.17497 o
    89 0 o
    53.8118 5.43378 o
    21.8596 20.9089 o
    -4 45 o
    -3 780 o
    -3 780 o
    437 780 o
    461.609 755.139 o
    478.049 724.189 o
    484 690 o
    478.049 655.144 o
    461.609 624.194 o
    437 600 o
    183 600 o
    0 0 z
  EndSpiro
-3 300 m 0
 -3 480 l 0
 362 480 l 0
 390 459 409 425 409 390 c 0
 409 354 390 320 362 300 c 0
 -3 300 l 0
  Spiro
    184 44 v
    89 0 c
    -4 45 v
    -3 780 v
    -3 780 v
    437 780 v
    484 690 c
    437 600 v
    183 600 v
    -3 300 v
    -3 480 v
    362 480 v
    409 390 c
    362 300 v
    0 0 z
  EndSpiro
EndSplineSet
EndChar
StartChar: G
Encoding: 71 71 54
Width: 619
InSpiro: 1
Flags: H
LayerCount: 2
Back
SplineSet
394 632 m 0
 394 631 393 630 393 630 c 0
 392 629 392 629 391 629 c 0
 390 629 390 629 390 630 c 0
 374 653 351 672 325 683 c 0
 299 693 269 696 242 690 c 0
 212 683 185 667 164 645 c 0
 143 624 128 597 117 569 c 0
 95 513 93 452 94 392 c 0
 94 331 96 270 117 213 c 0
 128 185 143 159 164 137 c 0
 186 116 212 99 242 93 c 0
 262 88 283 88 303 93 c 0
 323 98 342 110 355 125 c 0
 369 140 379 159 383 180 c 0
 388 200 389 221 389 242 c 0
 389 390 l 0
 240 390 l 0
 239 390 239 391 239 392 c 0
 239 392 239 393 240 394 c 0
 394 394 l 0
 394 394 l 0
 394 242 l 0
 394 220 393 198 388 178 c 0
 383 157 373 137 359 121 c 0
 344 105 325 94 304 89 c 0
 283 84 261 84 241 90 c 0
 211 97 184 114 163 135 c 0
 142 157 126 183 115 212 c 0
 93 268 90 330 90 391 c 0
 89 451 91 514 114 571 c 0
 125 599 141 626 162 648 c 0
 184 669 211 686 241 693 c 0
 269 699 299 697 327 686 c 0
 354 675 377 656 394 632 c 0
  Spiro
    394 632 v
    393 630 c
    390 630 v
    242 690 c
    94 392 c
    242 93 c
    389 242 [
    389 390 v
    240 390 v
    239 392 c
    240 394 v
    394 394 v
    394 394 v
    394 242 ]
    241 90 c
    90 391 c
    241 693 c
    0 0 z
  EndSpiro
EndSplineSet
Fore
SplineSet
494 642 m 0
 490 607 471 574 442 555 c 0
 411 534 371 529 337 542 c 0
 335 560 325 577 311 588 c 0
 297 599 278 604 260 602 c 0
 239 598 221 586 209 569 c 0
 197 553 190 533 187 512 c 0
 180 472 187 430 184 390 c 0
 181 366 176 344 171 321 c 0
 167 298 164 274 167 251 c 0
 170 228 179 205 196 189 c 0
 205 182 216 176 227 173 c 0
 239 171 251 172 262 177 c 0
 273 181 283 191 288 202 c 0
 293 214 294 227 295 240 c 0
 296 300 l 0
 192 300 l 0
 163 320 145 354 145 390 c 0
 145 425 163 459 192 480 c 0
 483 480 l 0
 483 480 l 0
 484 240 l 0
 484 203 483 166 474 131 c 0
 465 96 447 63 421 37 c 0
 394 12 360 -3 324 -9 c 0
 288 -14 251 -10 217 2 c 0
 142 28 82 88 47 159 c 0
 11 229 -2 309 -4 389 c 0
 -5 469 5 551 41 623 c 0
 59 659 83 692 113 719 c 0
 144 746 180 766 219 777 c 0
 272 791 331 785 381 760 c 0
 431 736 472 693 494 642 c 0
  Spiro
    494 642 v
    442 555 c
    337 542 v
    260 602 c
    184 390 c
    262 177 c
    295 240 [
    296 300 v
    192 300 v
    145 390 c
    192 480 v
    483 480 v
    483 480 v
    484 240 ]
    217 2 c
    -4 389 c
    219 777 c
    0 0 z
  EndSpiro
EndSplineSet
EndChar
StartChar: H
Encoding: 72 72 55
Width: 619
InSpiro: 1
Flags: H
LayerCount: 2
Back
SplineSet
90 693 m 0
 90 693 91 694 92 694 c 0
 92 694 93 693 94 693 c 0
 94 90 l 0
 92 90 l 0
 90 90 l 0
 90 693 l 0
90 390 m 0
 90 394 l 0
 394 394 l 0
 394 390 l 0
 90 390 l 0
389 693 m 0
 389 693 390 694 392 694 c 0
 392 693 393 693 394 693 c 0
 394 90 l 0
 392 90 l 0
 389 90 l 0
 389 693 l 0
  Spiro
    90 693 v
    92 694 c
    94 693 v
    94 90 v
    92 90 c
    90 90 v
    90 390 v
    90 394 v
    394 394 v
    394 390 v
    389 693 v
    392 694 c
    394 693 v
    394 90 v
    392 90 c
    389 90 v
    0 0 z
  EndSpiro
EndSplineSet
Fore
SplineSet
-4 735 m 0
 18 762 54 780 90 780 c 0
 125 780 161 762 184 735 c 0
 184 44 l 0
 161 16 125 0 90 0 c 0
 54 0 18 16 -4 44 c 0
 -4 735 l 0
-3 300 m 0
 -3 480 l 0
 483 480 l 0
 483 300 l 0
 -3 300 l 0
295 735 m 0
 317 763 353 780 390 780 c 0
 425 779 461 762 484 735 c 0
 484 44 l 0
 461 16 425 0 390 0 c 0
 353 0 318 16 295 44 c 0
 295 735 l 0
  Spiro
    -4 735 v
    90 780 c
    184 735 v
    184 44 v
    90 0 c
    -4 44 v
    -3 300 v
    -3 480 v
    483 480 v
    483 300 v
    295 735 v
    390 780 c
    484 735 v
    484 44 v
    390 0 c
    295 44 v
    0 0 z
  EndSpiro
EndSplineSet
EndChar
StartChar: I
Encoding: 73 73 56
Width: 619
InSpiro: 1
Flags: H
LayerCount: 2
Back
SplineSet
90 690 m 0
 90 692 l 0
 90 694 l 0
 393 694 l 0
 393 693 394 692 394 692 c 0
 394 691 393 690 393 690 c 0
 90 690 l 0
239 694 m 0
 244 694 l 0
 244 90 l 0
 239 90 l 0
 239 694 l 0
90 90 m 0
 90 92 l 0
 90 94 l 0
 393 94 l 0
 393 93 394 92 394 92 c 0
 394 91 393 90 393 90 c 0
 90 90 l 0
  Spiro
    90 690 v
    90 692 c
    90 694 v
    393 694 v
    394 692 c
    393 690 v
    239 694 v
    244 694 v
    244 90 v
    239 90 v
    90 90 v
    90 92 c
    90 94 v
    393 94 v
    394 92 c
    393 90 v
    0 0 z
  EndSpiro
EndSplineSet
Fore
SplineSet
42 600 m 0
 13 620 -4 655 -4 690 c 0
 -3 724 13 759 42 780 c 0
 437 780 l 0
 465 759 484 725 484 690 c 0
 484 654 465 620 437 600 c 0
 42 600 l 0
146 780 m 0
 333 780 l 0
 333 0 l 0
 146 0 l 0
 146 780 l 0
42 0 m 0
 13 20 -4 55 -4 90 c 0
 -3 124 13 159 42 180 c 0
 437 180 l 0
 465 159 484 125 484 90 c 0
 484 54 465 20 437 0 c 0
 42 0 l 0
  Spiro
    42 600 v
    -4 690 c
    42 780 v
    437 780 v
    484 690 c
    437 600 v
    146 780 v
    333 780 v
    333 0 v
    146 0 v
    42 0 v
    -4 90 c
    42 180 v
    437 180 v
    484 90 c
    437 0 v
    0 0 z
  EndSpiro
EndSplineSet
EndChar
StartChar: J
Encoding: 74 74 57
Width: 619
InSpiro: 1
Flags: H
LayerCount: 2
Back
SplineSet
90 690 m 0
 90 692 l 0
 90 694 l 0
 394 694 l 0
 394 694 l 0
 394 392 l 0
 393 330 393 267 370 210 c 0
 359 182 343 155 321 133 c 0
 299 112 271 96 242 90 c 0
 213 83 183 86 156 97 c 0
 129 108 106 127 90 151 c 0
 89 151 89 151 89 152 c 0
 89 152 89 152 90 153 c 0
 90 153 90 153 91 153 c 0
 92 153 92 153 93 153 c 0
 108 129 131 110 157 100 c 0
 183 89 213 86 241 93 c 0
 270 99 297 115 318 136 c 0
 340 158 356 184 366 213 c 0
 388 269 388 331 389 392 c 0
 389 690 l 0
 90 690 l 0
  Spiro
    90 690 v
    90 692 c
    90 694 v
    394 694 v
    394 694 v
    394 392 ]
    242 90 c
    90 151 v
    90 153 c
    93 153 v
    241 93 c
    389 392 [
    389 690 v
    0 0 z
  EndSpiro
EndSplineSet
Fore
SplineSet
42 600 m 0
 13 620 -4 655 -4 690 c 0
 -3 724 13 759 42 780 c 0
 483 780 l 0
 483 780 l 0
 484 390 l 0
 484 308 480 223 444 150 c 0
 426 113 401 80 369 54 c 0
 337 28 299 10 260 2 c 0
 206 -9 149 -2 99 21 c 0
 50 45 10 86 -14 136 c 0
 -11 170 7 204 36 224 c 0
 66 244 106 249 141 237 c 0
 141 218 151 200 166 189 c 0
 180 177 200 173 219 177 c 0
 238 181 256 194 267 211 c 0
 279 228 285 248 289 268 c 0
 296 308 294 349 295 390 c 0
 296 600 l 0
 42 600 l 0
  Spiro
    42 600 v
    -4 690 c
    42 780 v
    483 780 v
    483 780 v
    484 390 ]
    260 2 c
    -14 136 v
    36 224 c
    141 237 v
    219 177 c
    295 390 [
    296 600 v
    0 0 z
  EndSpiro
EndSplineSet
EndChar
StartChar: K
Encoding: 75 75 58
Width: 619
InSpiro: 1
Flags: H
LayerCount: 2
Back
SplineSet
90 693 m 0
 90 693 91 694 92 694 c 0
 92 694 93 693 94 693 c 0
 94 90 l 0
 92 90 l 0
 90 90 l 0
 90 693 l 0
391 694 m 0
 391 693 392 693 393 693 c 0
 393 692 393 691 394 691 c 0
 94 390 l 0
 90 390 l 0
 391 694 l 0
90 394 m 0
 94 394 l 0
 394 92 l 0
 394 91 393 91 393 90 c 0
 393 90 393 90 393 90 c 0
 392 89 392 89 392 89 c 0
 391 89 391 89 391 90 c 0
 90 394 l 0
  Spiro
    90 693 v
    92 694 c
    94 693 v
    94 90 v
    92 90 c
    90 90 v
    391 694 v
    393 693 c
    394 691 v
    94 390 v
    90 390 v
    90 394 v
    94 394 v
    394 92 v
    393 90 c
    391 90 v
    0 0 z
  EndSpiro
EndSplineSet
Fore
SplineSet
-4 735 m 0
 18 762 54 780 90 780 c 0
 125 780 161 762 184 735 c 0
 184 44 l 0
 161 16 125 0 90 0 c 0
 54 0 18 16 -4 44 c 0
 -4 735 l 0
356 785 m 0
 391 790 430 778 456 753 c 0
 480 728 493 692 489 658 c 0
 183 300 l 0
 -3 300 l 0
 356 785 l 0
-3 480 m 0
 183 480 l 0
 489 121 l 0
 493 86 480 50 456 26 c 0
 430 0 391 -11 356 -5 c 0
 -3 480 l 0
  Spiro
    -4 735 v
    90 780 c
    184 735 v
    184 44 v
    90 0 c
    -4 44 v
    356 785 v
    456 753 c
    489 658 v
    183 300 v
    -3 300 v
    -3 480 v
    183 480 v
    489 121 v
    456 26 c
    356 -5 v
    0 0 z
  EndSpiro
EndSplineSet
EndChar
StartChar: L
Encoding: 76 76 59
Width: 619
InSpiro: 1
Flags: H
LayerCount: 2
Back
SplineSet
90 693 m 0
 90 693 91 694 92 694 c 0
 92 694 93 693 94 693 c 0
 94 94 l 0
 393 94 l 0
 393 93 394 92 394 92 c 0
 394 91 393 90 393 90 c 0
 90 90 l 0
 90 90 l 0
 90 693 l 0
  Spiro
    90 693 v
    92 694 c
    94 693 v
    94 94 v
    393 94 v
    394 92 c
    393 90 v
    90 90 v
    90 90 v
    0 0 z
  EndSpiro
EndSplineSet
Fore
SplineSet
-4 735 m 0
 18 762 54 780 90 780 c 0
 125 780 161 762 184 735 c 0
 183 180 l 0
 437 180 l 0
 465 159 484 125 484 90 c 0
 484 54 465 20 437 0 c 0
 -3 0 l 0
 -3 0 l 0
 -4 735 l 0
  Spiro
    -4 735 v
    90 780 c
    184 735 v
    183 180 v
    437 180 v
    484 90 c
    437 0 v
    -3 0 v
    -3 0 v
    0 0 z
  EndSpiro
EndSplineSet
EndChar
StartChar: M
Encoding: 77 77 60
Width: 769
InSpiro: 1
Flags: H
LayerCount: 2
Back
SplineSet
94 90 m 0
 93 89 93 89 92 89 c 0
 91 89 91 89 91 90 c 0
 90 90 90 90 90 91 c 0
 90 694 l 0
 93 694 l 0
 317 97 l 0
 540 694 l 0
 544 694 l 0
 544 90 l 0
 542 90 l 0
 539 90 l 0
 539 680 l 0
 318 90 l 0
 315 90 l 0
 94 680 l 0
 94 90 l 0
  Spiro
    94 90 v
    91 90 c
    90 91 v
    90 694 v
    93 694 v
    317 97 v
    540 694 v
    544 694 v
    544 90 v
    542 90 c
    539 90 v
    539 680 v
    318 90 v
    315 90 v
    94 680 v
    0 0 z
  EndSpiro
EndSplineSet
Fore
SplineSet
184 44 m 0
 160 16 125 0 89 0 c 0
 53 0 18 17 -4 45 c 0
 -3 780 l 0
 144 805 l 0
 315 346 l 0
 485 805 l 0
 633 780 l 0
 634 44 l 0
 611 16 575 0 540 0 c 0
 503 0 468 16 445 44 c 0
 449 193 l 0
 369 -25 l 0
 260 -25 l 0
 180 193 l 0
 184 44 l 0
  Spiro
    184 44 v
    89 0 c
    -4 45 v
    -3 780 v
    144 805 v
    315 346 v
    485 805 v
    633 780 v
    634 44 v
    540 0 c
    445 44 v
    449 193 v
    369 -25 v
    260 -25 v
    180 193 v
    0 0 z
  EndSpiro
EndSplineSet
EndChar
StartChar: N
Encoding: 78 78 61
Width: 619
InSpiro: 1
Flags: H
LayerCount: 2
Back
SplineSet
94 90 m 0
 93 89 93 89 92 89 c 0
 91 89 91 89 91 90 c 0
 90 90 90 90 90 91 c 0
 90 694 l 0
 92 694 l 0
 389 100 l 0
 389 693 l 0
 389 693 390 694 392 694 c 0
 392 693 393 693 394 693 c 0
 394 90 l 0
 391 90 l 0
 94 683 l 0
 94 90 l 0
  Spiro
    94 90 v
    91 90 c
    90 91 v
    90 694 v
    92 694 v
    389 100 v
    389 693 v
    392 694 c
    394 693 v
    394 90 v
    391 90 v
    94 683 v
    0 0 z
  EndSpiro
EndSplineSet
Fore
SplineSet
184 44 m 0
 160 16 125 0 89 0 c 0
 53 0 18 17 -4 45 c 0
 -3 780 l 0
 131 810 l 0
 298 471 l 0
 295 735 l 0
 317 763 353 780 390 780 c 0
 425 779 461 762 484 735 c 0
 483 0 l 0
 348 -30 l 0
 181 308 l 0
 184 44 l 0
  Spiro
    184 44 v
    89 0 c
    -4 45 v
    -3 780 v
    131 810 v
    298 471 v
    295 735 v
    390 780 c
    484 735 v
    483 0 v
    348 -30 v
    181 308 v
    0 0 z
  EndSpiro
EndSplineSet
EndChar
StartChar: P
Encoding: 80 80 63
Width: 619
InSpiro: 1
Flags: H
LayerCount: 2
Back
SplineSet
94 90 m 0
 93 89 93 89 92 89 c 0
 91 89 91 89 91 90 c 0
 90 90 90 90 90 91 c 0
 90 694 l 0
 90 694 l 0
 104 694 l 0
 164 694 227 694 284 673 c 0
 313 663 340 646 360 624 c 0
 381 601 394 571 394 541 c 0
 393 510 380 481 359 458 c 0
 339 436 312 420 284 410 c 0
 226 389 164 390 104 390 c 0
 90 390 l 0
 90 394 l 0
 104 394 l 0
 163 393 224 393 281 413 c 0
 309 423 335 438 355 461 c 0
 375 483 388 512 389 542 c 0
 388 571 375 600 355 622 c 0
 335 644 309 660 281 670 c 0
 224 690 163 689 104 690 c 0
 94 690 l 0
 94 90 l 0
  Spiro
    94 90 v
    91 90 c
    90 91 v
    90 694 v
    90 694 v
    104 694 ]
    394 541 c
    104 390 [
    90 390 v
    90 394 v
    104 394 ]
    389 542 c
    104 690 [
    94 690 v
    0 0 z
  EndSpiro
EndSplineSet
Fore
SplineSet
184 44 m 0
 160 16 125 0 89 0 c 0
 53 0 18 17 -4 45 c 0
 -3 780 l 0
 -3 780 l 0
 190 780 l 0
 226 780 262 779 297 772 c 0
 332 764 367 750 395 728 c 0
 424 707 447 677 462 645 c 0
 477 612 484 576 484 540 c 0
 483 503 477 467 462 434 c 0
 447 402 424 372 395 351 c 0
 366 329 332 315 297 307 c 0
 262 300 226 299 190 300 c 0
 -3 300 l 0
 -3 480 l 0
 190 480 l 0
 213 480 237 478 259 486 c 0
 270 490 281 496 288 505 c 0
 291 510 294 515 295 521 c 0
 297 527 296 533 295 539 c 0
 293 543 290 548 286 552 c 0
 283 555 278 558 274 561 c 0
 265 566 255 569 245 572 c 0
 225 578 206 588 190 600 c 0
 163 619 l 0
 184 44 l 0
  Spiro
    184 44 v
    89 0 c
    -4 45 v
    -3 780 v
    -3 780 v
    190 780 ]
    484 540 c
    190 300 [
    -3 300 v
    -3 480 v
    190 480 ]
    295 539 c
    190 600 [
    163 619 v
    0 0 z
  EndSpiro
EndSplineSet
EndChar
StartChar: R
Encoding: 82 82 65
Width: 619
InSpiro: 1
Flags: H
LayerCount: 2
Back
SplineSet
94 90 m 0
 93 89 93 89 92 89 c 0
 91 89 91 89 91 90 c 0
 90 90 90 90 90 91 c 0
 90 694 l 0
 90 694 l 0
 104 694 l 0
 164 693 226 694 283 672 c 0
 311 662 337 645 358 623 c 0
 378 601 392 572 394 542 c 0
 395 516 388 490 374 468 c 0
 360 446 340 428 317 416 c 0
 295 404 269 397 244 393 c 0
 218 390 192 389 167 390 c 0
 90 390 l 0
 90 394 l 0
 167 394 l 0
 192 394 217 394 242 397 c 0
 267 400 291 407 313 419 c 0
 336 431 355 448 369 469 c 0
 382 490 390 515 389 541 c 0
 387 570 373 599 354 621 c 0
 334 643 307 658 280 669 c 0
 224 690 163 689 104 690 c 0
 94 690 l 0
 94 90 l 0
239 392 m 0
 239 392 240 392 241 393 c 0
 241 393 242 393 243 393 c 0
 394 92 l 0
 393 91 392 90 392 90 c 0
 391 89 390 89 390 90 c 0
 239 392 l 0
  Spiro
    94 90 v
    91 90 c
    90 91 v
    90 694 v
    90 694 v
    104 694 ]
    394 542 c
    167 390 [
    90 390 v
    90 394 v
    167 394 ]
    389 541 c
    104 690 [
    94 690 v
    239 392 v
    241 393 c
    243 393 v
    394 92 v
    392 90 c
    390 90 v
    0 0 z
  EndSpiro
EndSplineSet
Fore
SplineSet
184 44 m 0
 160 16 125 0 89 0 c 0
 53 0 18 17 -4 45 c 0
 -3 780 l 0
 -3 780 l 0
 190 780 l 0
 226 779 263 779 299 772 c 0
 334 764 369 750 398 728 c 0
 427 706 450 676 465 642 c 0
 479 609 485 572 484 536 c 0
 482 498 472 461 454 429 c 0
 436 396 410 368 379 347 c 0
 348 326 312 313 276 307 c 0
 239 300 202 299 165 300 c 0
 -3 300 l 0
 -3 480 l 0
 165 480 l 0
 193 480 222 477 249 483 c 0
 263 487 277 493 286 503 c 0
 291 508 294 515 296 522 c 0
 298 529 297 536 295 543 c 0
 292 547 289 551 286 555 c 0
 282 558 277 561 273 563 c 0
 264 567 254 570 244 573 c 0
 224 579 206 588 190 600 c 0
 163 619 l 0
 184 44 l 0
134 390 m 0
 141 424 165 454 197 470 c 0
 229 486 270 486 303 470 c 0
 495 90 l 0
 487 55 463 24 432 9 c 0
 399 -7 358 -7 326 9 c 0
 134 390 l 0
  Spiro
    184 44 v
    89 0 c
    -4 45 v
    -3 780 v
    -3 780 v
    190 780 ]
    484 536 c
    165 300 [
    -3 300 v
    -3 480 v
    165 480 ]
    295 543 c
    190 600 [
    163 619 v
    134 390 v
    197 470 c
    303 470 v
    495 90 v
    432 9 c
    326 9 v
    0 0 z
  EndSpiro
EndSplineSet
EndChar
StartChar: S
Encoding: 83 83 66
Width: 619
InSpiro: 1
Flags: H
LayerCount: 2
Back
SplineSet
394 541 m 0
 393 540 392 540 392 540 c 0
 391 539 390 539 390 540 c 0
 386 578 369 615 342 642 c 0
 315 669 279 686 241 690 c 0
 215 692 190 688 167 679 c 0
 143 669 122 653 107 634 c 0
 91 614 81 590 79 565 c 0
 76 540 81 514 93 492 c 0
 107 465 131 444 157 428 c 0
 184 413 213 403 242 393 c 0
 271 382 300 372 327 356 c 0
 354 340 378 319 393 292 c 0
 405 269 409 242 407 217 c 0
 404 191 393 166 377 146 c 0
 362 126 340 110 316 100 c 0
 292 91 266 87 241 90 c 0
 202 93 165 111 138 138 c 0
 110 166 93 203 90 242 c 0
 90 242 90 242 91 243 c 0
 91 243 92 243 93 243 c 0
 96 204 113 167 140 140 c 0
 167 113 203 96 242 93 c 0
 267 90 292 94 315 103 c 0
 339 113 360 129 375 148 c 0
 391 168 401 192 403 217 c 0
 406 242 401 268 390 291 c 0
 375 317 351 338 325 354 c 0
 298 369 269 379 241 390 c 0
 211 400 182 410 155 426 c 0
 128 442 104 463 90 491 c 0
 77 513 73 540 76 565 c 0
 78 591 89 616 105 636 c 0
 121 656 142 672 166 682 c 0
 190 691 216 695 242 693 c 0
 280 689 317 671 345 644 c 0
 372 616 390 579 394 541 c 0
  Spiro
    394 541 v
    392 540 c
    390 540 v
    241 690 c
    93 492 c
    242 393 c
    393 292 c
    241 90 c
    90 242 v
    91 243 c
    93 243 v
    242 93 c
    390 291 c
    241 390 c
    90 491 c
    242 693 c
    0 0 z
  EndSpiro
EndSplineSet
Fore
SplineSet
487 503 m 0
 467 473 433 453 398 450 c 0
 362 446 325 460 300 486 c 0
 307 497 310 511 310 524 c 0
 310 538 307 552 299 563 c 0
 292 575 282 585 270 591 c 0
 258 597 244 600 231 600 c 0
 214 598 197 591 185 579 c 0
 180 572 175 565 173 557 c 0
 171 549 171 540 173 532 c 0
 175 522 180 513 187 506 c 0
 194 499 203 493 212 489 c 0
 231 481 251 478 271 474 c 0
 312 464 353 449 388 425 c 0
 423 402 454 370 473 332 c 0
 491 294 499 252 494 210 c 0
 490 169 474 129 449 96 c 0
 424 63 390 36 352 20 c 0
 314 3 272 -3 231 0 c 0
 163 5 99 38 55 89 c 0
 11 140 -11 208 -7 276 c 0
 12 305 45 325 81 329 c 0
 116 332 153 318 179 293 c 0
 171 281 168 267 168 254 c 0
 168 240 171 226 179 215 c 0
 186 203 196 193 208 187 c 0
 220 181 234 178 248 179 c 0
 264 180 281 187 293 199 c 0
 298 206 303 213 305 221 c 0
 307 229 307 238 306 247 c 0
 303 256 298 265 291 272 c 0
 284 279 275 285 266 289 c 0
 247 297 227 300 208 305 c 0
 166 314 125 329 90 353 c 0
 55 376 24 408 6 447 c 0
 -12 484 -19 526 -15 568 c 0
 -11 609 4 649 29 682 c 0
 54 715 88 742 126 758 c 0
 164 775 206 782 248 779 c 0
 315 773 379 740 424 689 c 0
 468 638 491 570 487 503 c 0
  Spiro
    487 503 v
    398 450 c
    300 486 v
    231 600 c
    173 532 c
    271 474 c
    473 332 c
    231 0 c
    -7 276 v
    81 329 c
    179 293 v
    248 179 c
    306 247 c
    208 305 c
    6 447 c
    248 779 c
    0 0 z
  EndSpiro
EndSplineSet
EndChar
StartChar: T
Encoding: 84 84 67
Width: 619
InSpiro: 1
Flags: H
LayerCount: 2
Back
SplineSet
90 690 m 0
 90 692 l 0
 90 694 l 0
 393 694 l 0
 393 693 394 692 394 692 c 0
 394 691 393 690 393 690 c 0
 90 690 l 0
239 694 m 0
 244 694 l 0
 244 90 l 0
 242 90 l 0
 239 90 l 0
 239 694 l 0
  Spiro
    90 690 v
    90 692 c
    90 694 v
    393 694 v
    394 692 c
    393 690 v
    239 694 v
    244 694 v
    244 90 v
    242 90 c
    239 90 v
    0 0 z
  EndSpiro
EndSplineSet
Fore
SplineSet
42 600 m 0
 13 620 -4 655 -4 690 c 0
 -3 724 13 759 42 780 c 0
 437 780 l 0
 465 759 484 725 484 690 c 0
 484 654 465 620 437 600 c 0
 42 600 l 0
146 780 m 0
 333 780 l 0
 334 44 l 0
 311 16 275 0 240 0 c 0
 203 0 168 16 145 44 c 0
 146 780 l 0
  Spiro
    42 600 v
    -4 690 c
    42 780 v
    437 780 v
    484 690 c
    437 600 v
    146 780 v
    333 780 v
    334 44 v
    240 0 c
    145 44 v
    0 0 z
  EndSpiro
EndSplineSet
EndChar
StartChar: U
Encoding: 85 85 68
Width: 619
InSpiro: 1
Flags: H
LayerCount: 2
Back
SplineSet
90 693 m 0
 90 693 91 694 92 694 c 0
 92 694 93 693 94 693 c 0
 94 392 l 0
 94 330 92 267 111 208 c 0
 121 179 136 151 158 130 c 0
 180 108 210 94 241 94 c 0
 271 93 301 108 324 129 c 0
 346 150 361 178 371 208 c 0
 390 267 388 330 389 392 c 0
 389 693 l 0
 389 693 390 694 392 694 c 0
 392 693 393 693 394 693 c 0
 394 392 l 0
 394 329 395 265 375 205 c 0
 365 175 349 147 326 125 c 0
 303 104 273 90 242 90 c 0
 210 90 180 104 157 125 c 0
 134 147 118 175 108 205 c 0
 88 264 90 329 90 392 c 0
 90 693 l 0
  Spiro
    90 693 v
    92 694 c
    94 693 v
    94 392 ]
    241 94 c
    389 392 [
    389 693 v
    392 694 c
    394 693 v
    394 392 ]
    242 90 c
    90 392 [
    0 0 z
  EndSpiro
EndSplineSet
Fore
SplineSet
-4 735 m 0
 18 762 54 780 90 780 c 0
 125 780 161 762 184 735 c 0
 184 390 l 0
 184 350 179 310 179 270 c 0
 179 250 182 229 191 212 c 0
 196 203 202 195 211 189 c 0
 219 183 228 180 239 180 c 0
 249 179 258 183 267 189 c 0
 275 194 281 202 286 211 c 0
 296 229 299 249 299 269 c 0
 299 309 294 349 295 390 c 0
 295 735 l 0
 317 763 353 780 390 780 c 0
 425 779 461 762 484 735 c 0
 484 390 l 0
 484 303 481 214 442 137 c 0
 423 99 395 64 360 39 c 0
 325 14 283 0 240 0 c 0
 196 0 154 14 119 39 c 0
 84 64 56 99 37 137 c 0
 -1 214 -4 303 -4 390 c 0
 -4 735 l 0
  Spiro
    -4 735 v
    90 780 c
    184 735 v
    184 390 ]
    239 180 c
    295 390 [
    295 735 v
    390 780 c
    484 735 v
    484 390 ]
    240 0 c
    -4 390 [
    0 0 z
  EndSpiro
EndSplineSet
EndChar
StartChar: V
Encoding: 86 86 69
Width: 619
InSpiro: 1
Flags: H
LayerCount: 2
Back
SplineSet
90 692 m 0
 90 692 90 692 91 693 c 0
 91 693 92 693 93 693 c 0
 242 100 l 0
 390 693 l 0
 390 693 391 693 392 693 c 0
 392 692 393 692 394 692 c 0
 243 90 l 0
 240 90 l 0
 90 692 l 0
  Spiro
    90 692 v
    91 693 c
    93 693 v
    242 100 v
    390 693 v
    392 693 c
    394 692 v
    243 90 v
    240 90 v
    0 0 z
  EndSpiro
EndSplineSet
Fore
SplineSet
-12 711 m 0
 2 743 32 768 67 777 c 0
 101 785 140 777 169 755 c 0
 240 461 l 0
 310 755 l 0
 338 777 377 785 412 777 c 0
 446 768 477 743 492 711 c 0
 307 -19 l 0
 172 -19 l 0
 -12 711 l 0
  Spiro
    -12 711 v
    67 777 c
    169 755 v
    240 461 v
    310 755 v
    412 777 c
    492 711 v
    307 -19 v
    172 -19 v
    0 0 z
  EndSpiro
EndSplineSet
EndChar
StartChar: W
Encoding: 87 87 70
Width: 769
InSpiro: 1
Flags: H
LayerCount: 2
Back
SplineSet
90 692 m 0
 90 692 90 692 91 693 c 0
 91 693 92 693 93 693 c 0
 204 102 l 0
 315 694 l 0
 318 694 l 0
 429 102 l 0
 540 693 l 0
 540 693 541 693 542 693 c 0
 542 692 543 692 544 692 c 0
 430 90 l 0
 427 90 l 0
 316 681 l 0
 205 90 l 0
 202 90 l 0
 90 692 l 0
  Spiro
    90 692 v
    91 693 c
    93 693 v
    204 102 v
    315 694 v
    318 694 v
    429 102 v
    540 693 v
    542 693 c
    544 692 v
    430 90 v
    427 90 v
    316 681 v
    205 90 v
    202 90 v
    0 0 z
  EndSpiro
EndSplineSet
Fore
SplineSet
-11 717 m 0
 5 748 37 771 72 778 c 0
 107 784 145 774 173 750 c 0
 202 578 l 0
 240 795 l 0
 389 794 l 0
 427 578 l 0
 456 750 l 0
 483 773 521 784 557 778 c 0
 592 771 623 748 641 717 c 0
 501 -15 l 0
 352 -14 l 0
 314 201 l 0
 276 -15 l 0
 127 -14 l 0
 -11 717 l 0
  Spiro
    -11 717 v
    72 778 c
    173 750 v
    202 578 v
    240 795 v
    389 794 v
    427 578 v
    456 750 v
    557 778 c
    641 717 v
    501 -15 v
    352 -14 v
    314 201 v
    276 -15 v
    127 -14 v
    0 0 z
  EndSpiro
EndSplineSet
EndChar
StartChar: X
Encoding: 88 88 71
Width: 619
InSpiro: 1
Flags: H
LayerCount: 2
Back
SplineSet
90 692 m 0
 90 692 90 692 91 693 c 0
 91 693 92 693 93 693 c 0
 394 92 l 0
 393 91 392 90 392 90 c 0
 391 89 390 89 390 90 c 0
 90 692 l 0
390 693 m 0
 390 693 391 693 392 693 c 0
 392 692 393 692 394 692 c 0
 93 90 l 0
 92 89 91 89 91 90 c 0
 90 90 90 90 90 91 c 0
 390 693 l 0
  Spiro
    90 692 v
    91 693 c
    93 693 v
    394 92 v
    392 90 c
    390 90 v
    390 693 v
    392 693 c
    394 692 v
    93 90 v
    91 90 c
    90 91 v
    0 0 z
  EndSpiro
EndSplineSet
Fore
SplineSet
-15 690 m 0
 -7 724 15 754 47 770 c 0
 79 786 120 786 153 770 c 0
 495 90 l 0
 487 55 463 24 432 9 c 0
 399 -7 358 -7 326 9 c 0
 -15 690 l 0
326 770 m 0
 358 786 399 786 432 770 c 0
 463 754 487 724 495 690 c 0
 153 9 l 0
 120 -7 79 -7 47 9 c 0
 15 24 -7 54 -15 89 c 0
 326 770 l 0
  Spiro
    -15 690 v
    47 770 c
    153 770 v
    495 90 v
    432 9 c
    326 9 v
    326 770 v
    432 770 c
    495 690 v
    153 9 v
    47 9 c
    -15 89 v
    0 0 z
  EndSpiro
EndSplineSet
EndChar
StartChar: Y
Encoding: 89 89 72
Width: 619
InSpiro: 1
Flags: H
LayerCount: 2
Back
SplineSet
90 692 m 0
 90 692 90 692 91 693 c 0
 91 693 92 693 93 693 c 0
 242 396 l 0
 390 693 l 0
 390 693 391 693 392 693 c 0
 392 692 393 692 394 692 c 0
 242 389 l 0
 241 389 l 0
 90 692 l 0
239 393 m 0
 239 393 240 394 242 394 c 0
 242 393 243 393 244 393 c 0
 244 90 l 0
 242 90 l 0
 239 90 l 0
 239 393 l 0
  Spiro
    90 692 v
    91 693 c
    93 693 v
    242 396 v
    390 693 v
    392 693 c
    394 692 v
    242 389 v
    241 389 v
    239 393 v
    242 394 c
    244 393 v
    244 90 v
    242 90 c
    239 90 v
    0 0 z
  EndSpiro
EndSplineSet
Fore
SplineSet
-15 690 m 0
 -7 724 15 754 47 770 c 0
 79 786 120 786 153 770 c 0
 240 591 l 0
 326 770 l 0
 358 786 399 786 432 770 c 0
 463 754 487 724 495 690 c 0
 281 269 l 0
 198 269 l 0
 -15 690 l 0
145 435 m 0
 167 463 203 480 240 480 c 0
 275 479 311 462 334 435 c 0
 334 44 l 0
 311 16 275 0 240 0 c 0
 203 0 168 16 145 44 c 0
 145 435 l 0
  Spiro
    -15 690 v
    47 770 c
    153 770 v
    240 591 v
    326 770 v
    432 770 c
    495 690 v
    281 269 v
    198 269 v
    145 435 v
    240 480 c
    334 435 v
    334 44 v
    240 0 c
    145 44 v
    0 0 z
  EndSpiro
EndSplineSet
EndChar
StartChar: Z
Encoding: 90 90 73
Width: 619
InSpiro: 1
Flags: H
LayerCount: 2
Back
SplineSet
90 690 m 0
 90 692 l 0
 90 694 l 0
 394 694 l 0
 394 692 l 0
 95 94 l 0
 393 94 l 0
 393 93 394 92 394 92 c 0
 394 91 393 90 393 90 c 0
 90 90 l 0
 90 91 l 0
 388 690 l 0
 90 690 l 0
  Spiro
    90 690 v
    90 692 c
    90 694 v
    394 694 v
    394 692 v
    95 94 v
    393 94 v
    394 92 c
    393 90 v
    90 90 v
    90 91 v
    388 690 v
    0 0 z
  EndSpiro
EndSplineSet
Fore
SplineSet
42 600 m 0
 13 620 -4 655 -4 690 c 0
 -3 724 13 759 42 780 c 0
 483 780 l 0
 515 730 l 0
 239 180 l 0
 437 180 l 0
 465 159 484 125 484 90 c 0
 484 54 465 20 437 0 c 0
 -3 0 l 0
 -35 49 l 0
 240 600 l 0
 42 600 l 0
  Spiro
    42 600 v
    -4 690 c
    42 780 v
    483 780 v
    515 730 v
    239 180 v
    437 180 v
    484 90 c
    437 0 v
    -3 0 v
    -35 49 v
    240 600 v
    0 0 z
  EndSpiro
EndSplineSet
EndChar
StartChar: b
Encoding: 98 98 12
Width: 619
InSpiro: 1
Flags: H
LayerCount: 2
Back
SplineSet
90 693 m 0
 90 693 91 694 92 694 c 0
 92 694 93 693 94 693 c 0
 94 90 l 0
 92 90 l 0
 90 90 l 0
 90 693 l 0
90 154 m 0
 94 154 l 0
 110 131 133 114 159 103 c 0
 184 93 213 89 241 93 c 0
 282 98 321 121 348 153 c 0
 374 186 388 228 389 271 c 0
 389 313 375 355 348 388 c 0
 321 421 282 444 241 450 c 0
 213 453 185 450 159 439 c 0
 133 429 111 411 94 390 c 0
 90 390 l 0
 107 412 131 430 157 441 c 0
 184 452 213 456 242 453 c 0
 284 447 324 424 351 391 c 0
 379 358 393 314 394 272 c 0
 394 228 379 185 352 152 c 0
 324 118 284 95 242 90 c 0
 213 86 183 90 157 101 c 0
 130 112 107 130 90 154 c 0
  Spiro
    90 693 v
    92 694 c
    94 693 v
    94 90 v
    92 90 c
    90 90 v
    90 154 v
    94 154 v
    241 93 c
    389 271 c
    241 450 c
    94 390 v
    90 390 v
    242 453 c
    394 272 c
    242 90 c
    0 0 z
  EndSpiro
EndSplineSet
Fore
SplineSet
-4 735 m 0
 18 762 54 780 90 780 c 0
 125 780 161 762 184 735 c 0
 184 44 l 0
 161 16 125 0 90 0 c 0
 54 0 18 16 -4 44 c 0
 -4 735 l 0
-3 240 m 0
 183 240 l 0
 179 226 182 210 190 199 c 0
 198 187 212 179 227 179 c 0
 237 178 248 181 257 186 c 0
 266 191 273 199 279 208 c 0
 291 226 294 247 295 269 c 0
 295 290 291 312 280 330 c 0
 274 339 266 347 257 352 c 0
 248 357 237 360 227 360 c 0
 212 359 199 351 190 340 c 0
 182 328 179 313 183 300 c 0
 -3 300 l 0
 -4 365 23 431 71 476 c 0
 119 521 186 544 252 539 c 0
 316 533 378 499 419 449 c 0
 461 400 483 334 484 270 c 0
 484 204 461 139 420 89 c 0
 378 39 316 5 252 0 c 0
 186 -5 118 17 70 62 c 0
 22 108 -4 174 -3 240 c 0
  Spiro
    -4 735 v
    90 780 c
    184 735 v
    184 44 v
    90 0 c
    -4 44 v
    -3 240 v
    183 240 v
    227 179 c
    295 269 c
    227 360 c
    183 300 v
    -3 300 v
    252 539 c
    484 270 c
    252 0 c
    0 0 z
  EndSpiro
EndSplineSet
EndChar
StartChar: c
Encoding: 99 99 13
Width: 619
InSpiro: 1
Flags: H
LayerCount: 2
Back
SplineSet
394 392 m 0
 393 391 393 390 393 390 c 0
 392 389 391 389 391 389 c 0
 373 411 350 428 324 439 c 0
 298 450 269 453 242 450 c 0
 200 444 161 421 134 388 c 0
 108 356 94 314 94 272 c 0
 93 229 108 187 134 154 c 0
 161 121 200 98 242 93 c 0
 269 89 298 92 324 103 c 0
 350 114 373 131 391 154 c 0
 391 153 392 153 393 153 c 0
 393 152 393 151 394 151 c 0
 376 128 352 110 325 100 c 0
 298 89 269 85 241 90 c 0
 198 95 159 119 131 152 c 0
 104 185 90 228 90 271 c 0
 89 314 104 357 131 390 c 0
 158 423 198 446 241 453 c 0
 269 457 298 453 325 442 c 0
 352 432 376 414 394 392 c 0
  Spiro
    394 392 v
    393 390 c
    391 389 v
    242 450 c
    94 272 c
    242 93 c
    391 154 v
    393 153 c
    394 151 v
    241 90 c
    90 271 c
    241 453 c
    0 0 z
  EndSpiro
EndSplineSet
Fore
SplineSet
492 410 m 0
 491 375 475 340 448 319 c 0
 419 296 380 288 345 298 c 0
 341 318 328 337 311 348 c 0
 294 360 272 364 252 360 c 0
 232 355 214 343 202 327 c 0
 190 310 184 290 184 270 c 0
 183 249 189 228 201 212 c 0
 213 195 231 183 252 179 c 0
 272 174 294 178 311 190 c 0
 328 201 341 220 345 241 c 0
 380 250 419 242 448 220 c 0
 475 198 491 163 492 129 c 0
 465 83 426 46 379 23 c 0
 332 1 278 -7 227 0 c 0
 163 9 103 42 61 91 c 0
 19 140 -3 204 -4 269 c 0
 -4 333 19 398 61 447 c 0
 102 496 163 529 227 539 c 0
 278 546 332 537 379 515 c 0
 426 492 465 455 492 410 c 0
  Spiro
    492 410 v
    448 319 c
    345 298 v
    252 360 c
    184 270 c
    252 179 c
    345 241 v
    448 220 c
    492 129 v
    227 0 c
    -4 269 c
    227 539 c
    0 0 z
  EndSpiro
EndSplineSet
EndChar
StartChar: d
Encoding: 100 100 15
Width: 619
InSpiro: 1
Flags: H
LayerCount: 2
Back
SplineSet
389 693 m 0
 389 693 390 694 392 694 c 0
 392 693 393 693 394 693 c 0
 394 90 l 0
 392 90 l 0
 389 90 l 0
 389 693 l 0
394 390 m 0
 389 390 l 0
 371 411 349 429 323 439 c 0
 297 450 269 453 242 450 c 0
 200 444 161 421 134 388 c 0
 108 356 94 314 94 272 c 0
 93 229 107 187 134 154 c 0
 161 121 200 98 242 93 c 0
 269 89 298 93 323 103 c 0
 349 114 372 131 389 154 c 0
 394 154 l 0
 376 130 352 112 326 101 c 0
 299 90 269 86 241 90 c 0
 198 95 158 118 131 152 c 0
 104 185 90 228 90 271 c 0
 89 314 104 357 131 390 c 0
 158 423 198 447 241 453 c 0
 269 456 299 453 326 442 c 0
 352 431 376 412 394 390 c 0
  Spiro
    389 693 v
    392 694 c
    394 693 v
    394 90 v
    392 90 c
    389 90 v
    394 390 v
    389 390 v
    242 450 c
    94 272 c
    242 93 c
    389 154 v
    394 154 v
    241 90 c
    90 271 c
    241 453 c
    0 0 z
  EndSpiro
EndSplineSet
Fore
SplineSet
295 735 m 0
 317 763 353 780 390 780 c 0
 425 779 461 762 484 735 c 0
 484 44 l 0
 461 16 425 0 390 0 c 0
 353 0 318 16 295 44 c 0
 295 735 l 0
483 300 m 0
 296 300 l 0
 299 313 296 328 288 340 c 0
 279 351 266 359 252 360 c 0
 241 360 230 357 221 352 c 0
 212 347 205 339 199 330 c 0
 187 312 184 291 184 270 c 0
 183 248 187 226 198 208 c 0
 204 199 212 192 221 186 c 0
 230 181 241 178 252 179 c 0
 266 179 280 187 288 199 c 0
 296 210 299 226 296 240 c 0
 483 240 l 0
 484 173 457 107 408 62 c 0
 360 17 292 -6 227 0 c 0
 162 5 101 39 59 89 c 0
 18 139 -3 204 -4 269 c 0
 -4 334 17 399 59 449 c 0
 101 499 162 533 227 539 c 0
 292 544 360 521 408 476 c 0
 456 431 484 365 483 300 c 0
  Spiro
    295 735 v
    390 780 c
    484 735 v
    484 44 v
    390 0 c
    295 44 v
    483 300 v
    296 300 v
    252 360 c
    184 270 c
    252 179 c
    296 240 v
    483 240 v
    227 0 c
    -4 269 c
    227 539 c
    0 0 z
  EndSpiro
EndSplineSet
EndChar
StartChar: e
Encoding: 101 101 17
Width: 619
InSpiro: 1
Flags: H
LayerCount: 2
Back
SplineSet
90 270 m 0
 90 272 l 0
 90 274 l 0
 389 274 l 0
 389 284 l 0
 388 305 388 327 384 347 c 0
 379 368 370 389 357 405 c 0
 343 422 325 434 305 442 c 0
 285 449 263 452 242 450 c 0
 199 445 159 423 132 390 c 0
 105 357 91 314 94 272 c 0
 96 230 113 191 139 159 c 0
 166 128 202 105 242 93 c 0
 290 77 343 77 392 94 c 0
 392 93 393 93 393 93 c 0
 393 93 393 92 394 92 c 0
 394 91 393 91 393 90 c 0
 393 90 393 90 393 90 c 0
 343 74 290 74 241 90 c 0
 201 102 164 125 137 157 c 0
 109 188 92 229 90 271 c 0
 87 314 101 358 129 392 c 0
 157 425 197 448 241 453 c 0
 262 455 285 453 306 446 c 0
 327 438 346 425 360 409 c 0
 374 392 384 371 388 349 c 0
 393 328 394 306 394 284 c 0
 394 270 l 0
 394 270 l 0
 90 270 l 0
  Spiro
    90 270 v
    90 272 c
    90 274 v
    389 274 v
    389 284 ]
    242 450 c
    94 272 c
    242 93 c
    392 94 v
    394 92 c
    393 90 v
    241 90 c
    90 271 c
    241 453 c
    394 284 [
    394 270 v
    394 270 v
    0 0 z
  EndSpiro
EndSplineSet
Fore
SplineSet
24 230 m 1
 9.60017725274 242.827609904 0.999393768424 261.886176915 0.999393768424 281.284664896 c 0
 0.999393768424 294.833192718 5.11769397349 308.355731072 12.6737767209 319.601993766 c 0
 20.2827785871 330.927019799 31.3464483672 339.896985682 44 345 c 1
 308 345 l 1
 278 371 l 2
 273.905284337 374.548753574 269.733041324 378.065240185 265.013538626 380.727315047 c 0
 260.294035929 383.38938991 255.058770353 385.17453352 249.668505825 385.727160529 c 0
 244.278241297 386.279787537 238.791354003 385.610661897 233.616008872 384.005622624 c 0
 228.440663742 382.400583351 223.580873809 379.894122223 219 377 c 0
 201.534265785 365.965430692 187.858928526 349.135901637 180.320532911 329.900876734 c 0
 175.662639519 318.015762186 173.342886981 305.253556112 173.342886981 292.486198216 c 0
 173.342886981 284.590697029 174.230040949 276.693225607 176 269 c 0
 180.649018641 248.792781513 191.270369035 230.131518033 205.559799079 215.106297824 c 0
 219.849229124 200.081077615 237.723782079 188.640188217 257 181 c 0
 275.866924037 173.522036672 296.136509241 169.840902902 316.420406151 169.840902902 c 0
 346.021401251 169.840902902 375.652875389 177.680458284 401 193 c 1
 406.039890024 193.868434149 411.152196662 194.29783355 416.265216393 194.29783355 c 0
 429.561325592 194.29783355 442.862256943 191.394107481 454.907107128 185.756092501 c 0
 471.583805303 177.949978462 485.777777725 164.93732395 495 149 c 0
 502.994657702 135.184083851 507.102377876 119.213943002 507.102377876 103.259166045 c 0
 507.102377876 93.6129965402 505.600864675 83.972443067 502.549045288 74.816984904 c 0
 494.449512648 50.518386983 475.56391204 30.0382438362 452 20 c 0
 407.420544259 2.08451682455 359.371216615 -6.95812453913 311.332907882 -6.95812453913 c 0
 275.744103631 -6.95812453913 240.161347078 -1.99509703873 206 8 c 0
 145.841683357 25.6014198493 89.6681929842 59.0105412065 49.1911713353 106.869122052 c 0
 11.1270726358 151.874749213 -12.2844636608 209.981476259 -12.2844636608 268.807378231 c 0
 -12.2844636608 272.536413562 -12.1903861712 276.268338843 -12 280 c 0
 -8.33669695804 351.802513708 31.1013063203 419.674479102 88.074901243 463.526847858 c 0
 143.691843048 506.335005645 214.641104158 527.036933108 284.862818409 527.036933108 c 0
 286.575722867 527.036933108 288.288194428 527.024615278 290 527 c 0
 314.295714937 526.650634517 338.708674265 523.867705275 361.87580637 516.540508641 c 0
 385.042938476 509.213312007 406.836533707 497.205971653 424.66377852 480.695576052 c 0
 442.491023333 464.185180452 456.074110531 443.321041897 465.001330691 420.722179963 c 0
 473.928550851 398.123318029 478.161110988 373.993056322 482 350 c 2
 494 275 l 1
 490.631333334 265.713892912 485.898309588 256.923991669 480 249 c 0
 475.343214809 242.743914845 469.96263562 237.027049457 464 232 c 1
 24 230 l 1
  Spiro
    24 230 v
    1 281 c
    44 345 v
    308 345 v
    278 371 ]
    219 377 c
    176 269 c
    257 181 c
    401 193 v
    495 149 c
    452 20 v
    206 8 c
    -12 280 c
    290 527 c
    482 350 [
    494 275 v
    480 249 o
    464 232 v
    0 0 z
  EndSpiro
EndSplineSet
EndChar
StartChar: f
Encoding: 102 102 19
Width: 469
InSpiro: 1
Flags: H
LayerCount: 2
Back
SplineSet
94 90 m 0
 93 89 93 89 92 89 c 0
 91 89 91 89 91 90 c 0
 90 90 90 90 90 91 c 0
 90 452 l 0
 90 478 90 504 94 530 c 0
 97 556 105 582 118 605 c 0
 130 628 148 648 169 664 c 0
 191 679 216 689 242 694 c 0
 242 693 243 693 243 693 c 0
 243 693 243 692 244 692 c 0
 244 691 243 691 243 690 c 0
 243 690 243 690 243 690 c 0
 217 685 193 675 172 660 c 0
 151 645 134 625 121 602 c 0
 109 579 101 554 98 529 c 0
 94 503 93 477 94 452 c 0
 94 90 l 0
90 450 m 0
 90 452 l 0
 90 454 l 0
 243 454 l 0
 243 453 244 452 244 452 c 0
 244 451 243 450 243 450 c 0
 90 450 l 0
  Spiro
    94 90 v
    91 90 c
    90 91 v
    90 452 ]
    242 694 v
    244 692 c
    243 690 v
    94 452 [
    90 450 v
    90 452 c
    90 454 v
    243 454 v
    244 452 c
    243 450 v
    0 0 z
  EndSpiro
EndSplineSet
Fore
SplineSet
184 44 m 0
 160 16 125 0 89 0 c 0
 53 0 18 17 -4 45 c 0
 -4 450 l 0
 -3 492 -3 534 4 575 c 0
 11 617 26 657 51 691 c 0
 75 726 108 754 147 770 c 0
 186 787 229 793 271 786 c 0
 303 770 327 739 333 704 c 0
 338 669 326 632 301 608 c 0
 282 608 263 604 247 595 c 0
 230 586 216 573 206 557 c 0
 196 542 190 524 187 505 c 0
 184 487 183 468 184 450 c 0
 184 44 l 0
42 360 m 0
 13 380 -4 415 -4 450 c 0
 -3 484 13 519 42 540 c 0
 287 540 l 0
 315 519 334 485 334 450 c 0
 334 414 315 380 287 360 c 0
 42 360 l 0
  Spiro
    184 44 v
    89 0 c
    -4 45 v
    -4 450 ]
    271 786 v
    333 704 c
    301 608 v
    184 450 [
    42 360 v
    -4 450 c
    42 540 v
    287 540 v
    334 450 c
    287 360 v
    0 0 z
  EndSpiro
EndSplineSet
EndChar
StartChar: g
Encoding: 103 103 20
Width: 619
InSpiro: 1
Flags: H
LayerCount: 2
Back
SplineSet
389 453 m 0
 389 453 390 454 392 454 c 0
 392 453 393 453 394 453 c 0
 394 92 l 0
 393 30 393 -31 370 -88 c 0
 359 -117 343 -143 321 -165 c 0
 299 -186 271 -202 242 -209 c 0
 213 -215 183 -212 156 -201 c 0
 129 -190 106 -171 90 -148 c 0
 89 -147 89 -147 89 -147 c 0
 89 -146 89 -146 90 -146 c 0
 90 -145 90 -145 91 -145 c 0
 92 -145 92 -145 93 -146 c 0
 108 -169 131 -188 157 -198 c 0
 183 -209 213 -211 241 -206 c 0
 270 -199 297 -183 318 -162 c 0
 340 -141 355 -115 366 -87 c 0
 388 -30 388 30 389 91 c 0
 389 453 l 0
394 390 m 0
 389 390 l 0
 371 411 349 429 323 439 c 0
 297 450 269 453 242 450 c 0
 200 444 161 421 134 388 c 0
 108 356 94 314 94 272 c 0
 93 229 107 187 134 154 c 0
 161 121 200 98 242 93 c 0
 269 89 298 93 323 103 c 0
 349 114 372 131 389 154 c 0
 394 154 l 0
 376 130 352 112 326 101 c 0
 299 90 269 86 241 90 c 0
 198 95 158 118 131 152 c 0
 104 185 90 228 90 271 c 0
 89 314 104 357 131 390 c 0
 158 423 198 447 241 453 c 0
 269 456 299 453 326 442 c 0
 352 431 376 412 394 390 c 0
  Spiro
    389 453 v
    392 454 c
    394 453 v
    394 92 ]
    242 -209 c
    90 -148 v
    90 -146 c
    93 -146 v
    241 -206 c
    389 91 [
    394 390 v
    389 390 v
    242 450 c
    94 272 c
    242 93 c
    389 154 v
    394 154 v
    241 90 c
    90 271 c
    241 453 c
    0 0 z
  EndSpiro
EndSplineSet
Fore
SplineSet
295 495 m 0
 317 523 353 540 390 540 c 0
 425 539 461 522 484 495 c 0
 484 90 l 0
 483 8 480 -75 444 -148 c 0
 426 -185 400 -218 369 -244 c 0
 337 -270 299 -288 260 -297 c 0
 206 -308 149 -301 99 -277 c 0
 50 -253 9 -212 -14 -163 c 0
 -11 -128 7 -94 36 -75 c 0
 66 -54 106 -49 141 -62 c 0
 142 -80 151 -98 166 -109 c 0
 181 -121 200 -125 219 -122 c 0
 238 -117 255 -104 267 -88 c 0
 279 -71 285 -51 289 -32 c 0
 296 7 294 48 295 89 c 0
 295 495 l 0
483 300 m 0
 296 300 l 0
 299 313 296 328 288 340 c 0
 279 351 266 359 252 360 c 0
 241 360 230 357 221 352 c 0
 212 347 205 339 199 330 c 0
 187 312 184 291 184 270 c 0
 183 248 187 226 198 208 c 0
 204 199 212 192 221 186 c 0
 230 181 241 178 252 179 c 0
 266 179 280 187 288 199 c 0
 296 210 299 226 296 240 c 0
 483 240 l 0
 484 173 457 107 408 62 c 0
 360 17 292 -6 227 0 c 0
 162 5 101 39 59 89 c 0
 18 139 -3 204 -4 269 c 0
 -4 334 17 399 59 449 c 0
 101 499 162 533 227 539 c 0
 292 544 360 521 408 476 c 0
 456 431 484 365 483 300 c 0
  Spiro
    295 495 v
    390 540 c
    484 495 v
    484 90 ]
    260 -297 c
    -14 -163 v
    36 -75 c
    141 -62 v
    219 -122 c
    295 89 [
    483 300 v
    296 300 v
    252 360 c
    184 270 c
    252 179 c
    296 240 v
    483 240 v
    227 0 c
    -4 269 c
    227 539 c
    0 0 z
  EndSpiro
EndSplineSet
EndChar
StartChar: i
Encoding: 105 105 23
Width: 319
InSpiro: 1
Flags: H
LayerCount: 2
Back
SplineSet
90 453 m 0
 90 453 91 454 92 454 c 0
 92 454 93 453 94 453 c 0
 94 90 l 0
 92 90 l 0
 90 90 l 0
 90 453 l 0
92 685 m 0
 93 684 95 685 96 687 c 0
 98 688 99 690 99 692 c 0
 98 693 98 695 96 696 c 0
 95 698 93 698 92 699 c 0
 90 699 88 698 87 696 c 0
 85 695 85 693 85 692 c 0
 84 690 85 688 87 687 c 0
 88 685 90 684 92 685 c 0
  Spiro
    90 453 v
    92 454 c
    94 453 v
    94 90 v
    92 90 c
    90 90 v
    92 685 c
    99 692 c
    92 699 c
    85 692 c
    0 0 z
  EndSpiro
EndSplineSet
Fore
SplineSet
-4 495 m 0
 18 522 54 540 90 540 c 0
 125 540 161 522 184 495 c 0
 184 44 l 0
 161 16 125 0 90 0 c 0
 54 0 18 16 -4 44 c 0
 -4 495 l 0
90 595 m 0
 114 594 139 605 157 622 c 0
 174 640 185 665 185 690 c 0
 184 714 174 739 157 757 c 0
 139 774 114 784 90 785 c 0
 65 785 40 774 22 757 c 0
 5 739 -4 714 -5 690 c 0
 -5 665 5 640 22 622 c 0
 40 605 65 594 90 595 c 0
  Spiro
    -4 495 v
    90 540 c
    184 495 v
    184 44 v
    90 0 c
    -4 44 v
    90 595 c
    185 690 c
    90 785 c
    -5 690 c
    0 0 z
  EndSpiro
EndSplineSet
EndChar
StartChar: j
Encoding: 106 106 24
Width: 619
InSpiro: 1
Flags: H
LayerCount: 2
Back
SplineSet
389 453 m 0
 389 453 390 454 392 454 c 0
 392 453 393 453 394 453 c 0
 394 92 l 0
 393 30 393 -31 370 -88 c 0
 359 -117 343 -143 321 -165 c 0
 299 -186 271 -202 242 -209 c 0
 213 -215 183 -212 156 -201 c 0
 129 -190 106 -171 90 -148 c 0
 89 -147 89 -147 89 -147 c 0
 89 -146 89 -146 90 -146 c 0
 90 -145 90 -145 91 -145 c 0
 92 -145 92 -145 93 -146 c 0
 108 -169 131 -188 157 -198 c 0
 183 -209 213 -211 241 -206 c 0
 270 -199 297 -183 318 -162 c 0
 340 -141 355 -115 366 -87 c 0
 388 -30 388 30 389 91 c 0
 389 453 l 0
392 685 m 0
 393 684 395 685 396 687 c 0
 398 688 399 690 399 692 c 0
 398 693 398 695 396 696 c 0
 395 698 393 698 392 699 c 0
 390 699 388 698 387 696 c 0
 385 695 385 693 385 692 c 0
 384 690 385 688 387 687 c 0
 388 685 390 684 392 685 c 0
  Spiro
    389 453 v
    392 454 c
    394 453 v
    394 92 ]
    242 -209 c
    90 -148 v
    90 -146 c
    93 -146 v
    241 -206 c
    389 91 [
    392 685 c
    399 692 c
    392 699 c
    385 692 c
    0 0 z
  EndSpiro
EndSplineSet
Fore
SplineSet
295 495 m 0
 317 523 353 540 390 540 c 0
 425 539 461 522 484 495 c 0
 484 90 l 0
 483 8 480 -75 444 -148 c 0
 426 -185 400 -218 369 -244 c 0
 337 -270 299 -288 260 -297 c 0
 206 -308 149 -301 99 -277 c 0
 50 -253 9 -212 -14 -163 c 0
 -11 -128 7 -94 36 -75 c 0
 66 -54 106 -49 141 -62 c 0
 142 -80 151 -98 166 -109 c 0
 181 -121 200 -125 219 -122 c 0
 238 -117 255 -104 267 -88 c 0
 279 -71 285 -51 289 -32 c 0
 296 7 294 48 295 89 c 0
 295 495 l 0
390 595 m 0
 414 594 439 605 457 622 c 0
 474 640 485 665 485 690 c 0
 484 714 474 739 457 757 c 0
 439 774 414 784 390 785 c 0
 365 785 340 774 322 757 c 0
 305 739 295 714 295 690 c 0
 294 665 305 640 322 622 c 0
 340 605 365 594 390 595 c 0
  Spiro
    295 495 v
    390 540 c
    484 495 v
    484 90 ]
    260 -297 c
    -14 -163 v
    36 -75 c
    141 -62 v
    219 -122 c
    295 89 [
    390 595 c
    485 690 c
    390 785 c
    295 690 c
    0 0 z
  EndSpiro
EndSplineSet
EndChar
StartChar: k
Encoding: 107 107 25
Width: 544
InSpiro: 1
Flags: H
LayerCount: 2
Back
SplineSet
90 693 m 0
 90 693 91 694 92 694 c 0
 92 694 93 693 94 693 c 0
 94 90 l 0
 92 90 l 0
 90 90 l 0
 90 693 l 0
316 454 m 0
 316 453 317 453 318 453 c 0
 318 452 318 451 319 451 c 0
 90 270 l 0
 90 274 l 0
 316 454 l 0
90 270 m 0
 90 274 l 0
 319 92 l 0
 319 91 318 91 318 90 c 0
 318 90 318 90 318 90 c 0
 317 89 317 89 317 89 c 0
 316 89 316 89 316 90 c 0
 90 270 l 0
  Spiro
    90 693 v
    92 694 c
    94 693 v
    94 90 v
    92 90 c
    90 90 v
    316 454 v
    318 453 c
    319 451 v
    90 270 v
    90 274 v
    90 270 v
    90 274 v
    319 92 v
    318 90 c
    316 90 v
    0 0 z
  EndSpiro
EndSplineSet
Fore
SplineSet
-4 735 m 0
 18 762 54 780 90 780 c 0
 125 780 161 762 184 735 c 0
 184 44 l 0
 161 16 125 0 90 0 c 0
 54 0 18 16 -4 44 c 0
 -4 735 l 0
292 548 m 0
 328 550 365 534 388 506 c 0
 410 478 418 441 410 407 c 0
 -3 180 l 0
 -3 360 l 0
 292 548 l 0
-3 180 m 0
 -3 360 l 0
 410 132 l 0
 418 98 410 60 388 33 c 0
 365 4 328 -10 292 -8 c 0
 -3 180 l 0
  Spiro
    -4 735 v
    90 780 c
    184 735 v
    184 44 v
    90 0 c
    -4 44 v
    292 548 v
    388 506 c
    410 407 v
    -3 180 v
    -3 360 v
    -3 180 v
    -3 360 v
    410 132 v
    388 33 c
    292 -8 v
    0 0 z
  EndSpiro
EndSplineSet
EndChar
StartChar: m
Encoding: 109 109 27
Width: 769
InSpiro: 1
Flags: H
LayerCount: 2
Back
SplineSet
90 453 m 0
 90 453 91 454 92 454 c 0
 92 454 93 453 94 453 c 0
 94 90 l 0
 92 90 l 0
 90 90 l 0
 90 453 l 0
94 390 m 0
 90 390 l 0
 100 419 123 443 151 455 c 0
 180 467 214 466 242 453 c 0
 273 437 295 407 307 375 c 0
 318 342 319 306 319 272 c 0
 319 90 l 0
 317 90 l 0
 314 90 l 0
 314 272 l 0
 314 305 313 340 302 372 c 0
 292 404 271 434 241 450 c 0
 214 463 181 464 153 453 c 0
 125 442 103 418 94 390 c 0
319 331 m 0
 318 330 317 330 317 330 c 0
 316 329 315 329 315 330 c 0
 311 348 312 367 318 384 c 0
 324 402 335 417 348 430 c 0
 362 442 379 451 397 455 c 0
 415 459 434 458 452 453 c 0
 469 447 485 437 498 425 c 0
 511 412 521 396 528 379 c 0
 542 346 544 308 544 272 c 0
 544 90 l 0
 542 90 l 0
 539 90 l 0
 539 272 l 0
 539 307 538 344 524 377 c 0
 518 393 508 409 495 421 c 0
 483 434 467 444 451 450 c 0
 433 455 415 456 398 452 c 0
 380 448 364 440 350 428 c 0
 337 416 327 400 321 383 c 0
 316 366 315 348 319 331 c 0
  Spiro
    90 453 v
    92 454 c
    94 453 v
    94 90 v
    92 90 c
    90 90 v
    94 390 v
    90 390 v
    242 453 c
    319 272 [
    319 90 v
    317 90 c
    314 90 v
    314 272 ]
    241 450 c
    319 331 v
    317 330 c
    315 330 v
    452 453 c
    544 272 [
    544 90 v
    542 90 c
    539 90 v
    539 272 ]
    451 450 c
    0 0 z
  EndSpiro
EndSplineSet
Fore
SplineSet
-4 495 m 0
 18 522 54 540 90 540 c 0
 125 540 161 522 184 495 c 0
 184 44 l 0
 161 16 125 0 90 0 c 0
 54 0 18 16 -4 44 c 0
 -4 495 l 0
183 300 m 0
 -3 300 l 0
 -11 336 -8 376 3 411 c 0
 16 447 38 479 68 503 c 0
 97 527 133 542 171 547 c 0
 208 551 247 545 282 530 c 0
 328 508 366 468 386 421 c 0
 406 374 409 321 409 270 c 0
 409 44 l 0
 386 16 350 0 315 0 c 0
 278 0 243 16 220 44 c 0
 220 270 l 0
 219 287 220 305 218 322 c 0
 217 331 216 340 212 348 c 0
 209 356 204 363 197 369 c 0
 186 376 172 378 160 373 c 0
 148 368 139 357 136 345 c 0
 134 332 138 319 147 310 c 0
 156 301 170 297 183 300 c 0
416 302 m 0
 398 270 367 247 332 241 c 0
 296 234 258 244 231 268 c 0
 218 303 216 341 223 377 c 0
 231 414 248 448 273 475 c 0
 299 503 332 523 367 533 c 0
 403 544 442 544 478 535 c 0
 531 520 578 482 604 433 c 0
 617 408 625 381 629 353 c 0
 633 325 634 297 634 270 c 0
 634 44 l 0
 611 16 575 0 540 0 c 0
 503 0 468 16 445 44 c 0
 445 270 l 0
 444 286 445 303 443 320 c 0
 442 328 440 337 437 345 c 0
 433 352 428 359 421 364 c 0
 415 367 410 368 404 369 c 0
 398 369 392 368 387 365 c 0
 381 362 377 358 373 353 c 0
 370 348 368 342 368 337 c 0
 367 331 368 325 371 319 c 0
 373 314 377 309 382 306 c 0
 387 302 392 300 398 299 c 0
 404 298 410 299 416 302 c 0
  Spiro
    -4 495 v
    90 540 c
    184 495 v
    184 44 v
    90 0 c
    -4 44 v
    183 300 v
    -3 300 v
    282 530 c
    409 270 [
    409 44 v
    315 0 c
    220 44 v
    220 270 ]
    197 369 c
    416 302 v
    332 241 c
    231 268 v
    478 535 c
    634 270 [
    634 44 v
    540 0 c
    445 44 v
    445 270 ]
    421 364 c
    0 0 z
  EndSpiro
EndSplineSet
EndChar
StartChar: n
Encoding: 110 110 28
Width: 619
InSpiro: 1
Flags: H
LayerCount: 2
Back
SplineSet
90 453 m 0
 90 453 91 454 92 454 c 0
 92 454 93 453 94 453 c 0
 94 90 l 0
 92 90 l 0
 90 90 l 0
 90 453 l 0
90 390 m 0
 90 394 l 0
 130 432 186 454 242 453 c 0
 264 452 286 448 307 439 c 0
 328 430 346 416 360 399 c 0
 374 381 384 360 388 338 c 0
 393 317 394 294 394 272 c 0
 394 90 l 0
 392 90 l 0
 389 90 l 0
 389 272 l 0
 389 293 388 316 384 337 c 0
 379 358 370 379 356 396 c 0
 343 414 325 427 304 436 c 0
 284 445 262 449 241 450 c 0
 185 451 129 429 90 390 c 0
  Spiro
    90 453 v
    92 454 c
    94 453 v
    94 90 v
    92 90 c
    90 90 v
    90 390 v
    90 394 v
    242 453 c
    394 272 [
    394 90 v
    392 90 c
    389 90 v
    389 272 ]
    241 450 c
    0 0 z
  EndSpiro
EndSplineSet
Fore
SplineSet
-4 495 m 0
 18 522 54 540 90 540 c 0
 125 540 161 522 184 495 c 0
 184 44 l 0
 161 16 125 0 90 0 c 0
 54 0 18 16 -4 44 c 0
 -4 495 l 0
-3 300 m 0
 -3 480 l 0
 71 520 156 541 241 539 c 0
 275 538 310 533 342 521 c 0
 375 509 405 489 428 464 c 0
 451 438 467 406 475 373 c 0
 483 339 484 304 484 270 c 0
 484 44 l 0
 461 16 425 0 390 0 c 0
 353 0 318 16 295 44 c 0
 295 270 l 0
 295 279 294 289 293 298 c 0
 291 308 287 317 282 325 c 0
 277 333 270 340 263 346 c 0
 255 351 246 356 238 360 c 0
 197 377 150 381 107 370 c 0
 64 359 24 334 -3 300 c 0
  Spiro
    -4 495 v
    90 540 c
    184 495 v
    184 44 v
    90 0 c
    -4 44 v
    -3 300 v
    -3 480 v
    241 539 c
    484 270 [
    484 44 v
    390 0 c
    295 44 v
    295 270 ]
    238 360 c
    0 0 z
  EndSpiro
EndSplineSet
EndChar
StartChar: o
Encoding: 111 111 30
Width: 619
InSpiro: 1
Flags: H
LayerCount: 2
Back
SplineSet
90 272 m 0
 90 315 102 359 129 394 c 0
 142 411 159 426 178 436 c 0
 197 446 219 452 241 453 c 0
 263 453 285 447 304 437 c 0
 324 426 341 412 354 394 c 0
 381 359 394 315 394 271 c 0
 393 227 381 182 354 148 c 0
 341 130 324 116 305 106 c 0
 285 95 263 90 242 90 c 0
 220 89 198 95 178 106 c 0
 159 116 142 131 128 148 c 0
 102 183 89 228 90 272 c 0
241 93 m 0
 262 92 283 98 302 108 c 0
 321 119 338 133 351 150 c 0
 377 185 389 228 389 272 c 0
 388 314 377 358 351 392 c 0
 338 409 322 423 303 433 c 0
 284 444 263 449 242 450 c 0
 220 450 199 444 180 434 c 0
 161 423 144 409 131 392 c 0
 105 357 93 314 94 271 c 0
 94 228 105 184 131 150 c 0
 144 133 160 119 179 109 c 0
 198 98 219 93 241 93 c 0
  Spiro
    90 272 c
    241 453 c
    394 271 c
    242 90 c
    241 93 c
    389 272 c
    242 450 c
    94 271 c
    0 0 z
  EndSpiro
EndSplineSet
Fore
SplineSet
-4 270 m 0
 -3 337 18 404 62 455 c 0
 106 506 171 538 239 539 c 0
 306 539 372 506 416 455 c 0
 461 404 484 336 484 269 c 0
 483 201 461 134 416 83 c 0
 372 32 307 0 240 0 c 0
 172 0 106 32 62 83 c 0
 18 134 -4 202 -4 270 c 0
239 179 m 0
 248 178 258 182 266 188 c 0
 274 194 280 202 285 211 c 0
 293 229 295 250 295 270 c 0
 294 289 293 309 285 327 c 0
 280 336 274 344 267 350 c 0
 259 356 249 359 240 360 c 0
 230 360 220 356 212 350 c 0
 204 344 198 336 193 327 c 0
 185 309 183 288 184 269 c 0
 184 249 185 229 193 211 c 0
 198 202 204 194 211 188 c 0
 219 182 229 179 239 179 c 0
  Spiro
    -4 270 c
    239 539 c
    484 269 c
    240 0 c
    239 179 c
    295 270 c
    240 360 c
    184 269 c
    0 0 z
  EndSpiro
EndSplineSet
EndChar
StartChar: p
Encoding: 112 112 31
Width: 619
InSpiro: 1
Flags: H
LayerCount: 2
Back
SplineSet
90 453 m 0
 90 453 91 454 92 454 c 0
 92 454 93 453 94 453 c 0
 94 -209 l 0
 93 -209 92 -210 92 -210 c 0
 91 -210 90 -209 90 -209 c 0
 90 453 l 0
90 154 m 0
 94 154 l 0
 110 131 133 114 159 103 c 0
 184 93 213 89 241 93 c 0
 282 98 321 121 348 153 c 0
 374 186 388 228 389 271 c 0
 389 313 375 355 348 388 c 0
 321 421 282 444 241 450 c 0
 213 453 185 450 159 439 c 0
 133 429 111 411 94 390 c 0
 90 390 l 0
 107 412 131 430 157 441 c 0
 184 452 213 456 242 453 c 0
 284 447 324 424 351 391 c 0
 379 358 393 314 394 272 c 0
 394 228 379 185 352 152 c 0
 324 118 284 95 242 90 c 0
 213 86 183 90 157 101 c 0
 130 112 107 130 90 154 c 0
  Spiro
    90 453 v
    92 454 c
    94 453 v
    94 -209 v
    92 -210 c
    90 -209 v
    90 154 v
    94 154 v
    241 93 c
    389 271 c
    241 450 c
    94 390 v
    90 390 v
    242 453 c
    394 272 c
    242 90 c
    0 0 z
  EndSpiro
EndSplineSet
Fore
SplineSet
-4 495 m 0
 18 522 54 540 90 540 c 0
 125 540 161 522 184 495 c 0
 184 -255 l 0
 161 -282 125 -300 90 -300 c 0
 54 -300 18 -282 -4 -255 c 0
 -4 495 l 0
-3 240 m 0
 183 240 l 0
 179 226 182 210 190 199 c 0
 198 187 212 179 227 179 c 0
 237 178 248 181 257 186 c 0
 266 191 273 199 279 208 c 0
 291 226 294 247 295 269 c 0
 295 290 291 312 280 330 c 0
 274 339 266 347 257 352 c 0
 248 357 237 360 227 360 c 0
 212 359 199 351 190 340 c 0
 182 328 179 313 183 300 c 0
 -3 300 l 0
 -4 365 23 431 71 476 c 0
 119 521 186 544 252 539 c 0
 316 533 378 499 419 449 c 0
 461 400 483 334 484 270 c 0
 484 204 461 139 420 89 c 0
 378 39 316 5 252 0 c 0
 186 -5 118 17 70 62 c 0
 22 108 -4 174 -3 240 c 0
  Spiro
    -4 495 v
    90 540 c
    184 495 v
    184 -255 v
    90 -300 c
    -4 -255 v
    -3 240 v
    183 240 v
    227 179 c
    295 269 c
    227 360 c
    183 300 v
    -3 300 v
    252 539 c
    484 270 c
    252 0 c
    0 0 z
  EndSpiro
EndSplineSet
EndChar
StartChar: r
Encoding: 114 114 39
Width: 619
InSpiro: 1
Flags: H
LayerCount: 2
Back
SplineSet
90 453 m 0
 90 453 91 454 92 454 c 0
 92 454 93 453 94 453 c 0
 94 90 l 0
 92 90 l 0
 90 90 l 0
 90 453 l 0
90 390 m 0
 90 394 l 0
 130 432 186 454 242 454 c 0
 298 453 353 431 394 392 c 0
 393 391 393 390 393 390 c 0
 392 389 391 389 391 389 c 0
 351 427 296 449 242 450 c 0
 186 450 130 428 90 390 c 0
  Spiro
    90 453 v
    92 454 c
    94 453 v
    94 90 v
    92 90 c
    90 90 v
    90 390 v
    90 394 v
    242 454 c
    394 392 v
    393 390 c
    391 389 v
    242 450 c
    0 0 z
  EndSpiro
EndSplineSet
Fore
SplineSet
-4 495 m 0
 18 522 54 540 90 540 c 0
 125 540 161 522 184 495 c 0
 184 44 l 0
 161 16 125 0 90 0 c 0
 54 0 18 16 -4 44 c 0
 -4 495 l 0
-3 300 m 0
 -3 480 l 0
 68 525 155 546 240 540 c 0
 332 532 422 490 488 424 c 0
 493 389 482 352 458 327 c 0
 432 300 394 287 359 293 c 0
 326 325 284 348 240 360 c 0
 155 381 61 358 -3 300 c 0
  Spiro
    -4 495 v
    90 540 c
    184 495 v
    184 44 v
    90 0 c
    -4 44 v
    -3 300 v
    -3 480 v
    240 540 c
    488 424 v
    458 327 c
    359 293 v
    240 360 c
    0 0 z
  EndSpiro
EndSplineSet
EndChar
StartChar: s
Encoding: 115 115 40
Width: 619
InSpiro: 1
Flags: H
LayerCount: 2
Back
SplineSet
394 392 m 0
 393 391 393 390 393 390 c 0
 392 389 391 389 391 389 c 0
 347 422 295 443 241 450 c 0
 222 452 203 452 184 449 c 0
 165 446 147 440 131 430 c 0
 115 419 102 404 94 387 c 0
 87 370 86 349 93 332 c 0
 97 318 107 307 118 298 c 0
 129 289 142 283 156 279 c 0
 183 271 212 272 241 273 c 0
 270 273 300 274 328 266 c 0
 342 262 355 255 367 246 c 0
 378 237 387 225 393 212 c 0
 399 193 398 172 391 154 c 0
 383 136 370 121 353 110 c 0
 337 100 318 93 299 90 c 0
 280 87 260 87 241 90 c 0
 186 96 133 117 90 151 c 0
 89 151 89 151 89 152 c 0
 89 152 89 152 90 153 c 0
 90 153 90 153 90 153 c 0
 91 153 91 154 92 154 c 0
 135 120 187 99 242 93 c 0
 260 90 279 90 298 93 c 0
 317 96 335 102 351 112 c 0
 367 123 380 138 388 155 c 0
 395 172 396 193 390 211 c 0
 385 224 375 235 364 244 c 0
 353 253 340 259 326 263 c 0
 299 271 270 270 242 270 c 0
 212 269 182 268 154 276 c 0
 140 280 127 287 115 296 c 0
 104 305 95 317 90 331 c 0
 83 349 84 370 91 388 c 0
 99 406 113 421 129 432 c 0
 145 442 164 449 183 452 c 0
 202 455 222 455 242 453 c 0
 296 446 350 425 394 392 c 0
  Spiro
    394 392 v
    393 390 c
    391 389 v
    241 450 c
    93 332 c
    241 273 c
    393 212 c
    241 90 c
    90 151 v
    90 153 c
    92 154 v
    242 93 c
    390 211 c
    242 270 c
    90 331 c
    242 453 c
    0 0 z
  EndSpiro
EndSplineSet
Fore
SplineSet
501 433 m 0
 515.311887352 421.928287439 524.607263679 404.608749301 525.92316477 386.562105765 c 0
 527.239065862 368.515462228 520.554418745 350.030714047 508 337 c 0
 499.090699256 327.752694114 487.366365022 321.254348226 474.802801228 318.600074185 c 0
 462.239237435 315.945800144 448.888331545 317.146560091 437 322 c 0
 371.628000072 355.288660625 302.328135295 380.855601028 231 398 c 0
 223.703680303 399.753740167 216.340474286 401.426322382 208.845944917 401.805684002 c 0
 201.351415549 402.185045622 193.654883777 401.211803181 186.921669922 397.898841233 c 0
 180.188456066 394.585879285 174.506821603 388.742769939 172.409985197 381.537552192 c 0
 171.361566994 377.934943318 171.227681425 374.051089133 172.166582648 370.418399232 c 0
 173.10548387 366.78570933 175.132982481 363.420368147 178 361 c 0
 180.202482751 359.140639512 182.847898791 357.862474713 185.585364513 356.960015233 c 0
 188.322830235 356.057555753 191.164160626 355.515913499 194 355 c 0
 246.32212718 345.481233905 300.094836104 343.870803648 351.508900519 330.27647097 c 0
 377.215932726 323.479304631 402.309016112 313.626082447 424.498254975 298.973756562 c 0
 446.687493838 284.321430677 465.921668794 264.688961362 478 241 c 0
 494.066174848 209.489769927 496.627000388 171.790248573 487.119545342 137.722303639 c 0
 477.612090295 103.654358705 456.494975953 73.2899671782 429.284089294 50.6938564344 c 0
 402.073202636 28.0977456905 368.97600892 13.0867102908 334.50094132 5.18188344594 c 0
 300.025873719 -2.72294339891 264.177892108 -3.67865197382 229 0 c 0
 142.817300717 9.0123693556 59.8390472848 46.4060028765 -4 105 c 0
 -16.8989199884 114.274340029 -26.1623139878 128.473412516 -29.4536226537 144.015703438 c 0
 -32.7449313196 159.55799436 -30.0323177045 176.293162577 -22 190 c 0
 -13.2910008665 204.861567935 1.61019158743 215.96162156 18.3428846738 220.051835425 c 0
 35.0755777601 224.142049291 53.4171078259 221.167994504 68 212 c 0
 115.564038506 172.3948169 173.894354633 145.849283812 235 136 c 0
 244.085623701 134.53553815 253.343578229 133.431565196 262.475705752 134.570623336 c 0
 271.607833275 135.709681476 280.700309988 139.29126597 287 146 c 0
 293.96589802 153.418199468 296.872167071 164.175779674 295.61104708 174.273452423 c 0
 294.349927089 184.371125172 289.183705962 193.760291029 282.064726084 201.031710703 c 0
 274.945746207 208.303130377 265.957822429 213.558932802 256.481765257 217.268078127 c 0
 247.005708084 220.977223451 237.015612103 223.199740914 227 225 c 0
 186.936751761 232.201180111 145.868902995 232.8524632 105.967292793 240.901212031 c 0
 86.0164876917 244.925586447 66.3336902619 250.832314253 48.1860230926 260.046020887 c 0
 30.0383559233 269.25972752 13.4273034291 281.881924957 1 298 c 0
 -21.6230086456 327.341791896 -28.8134240569 367.216551108 -20.8860771875 403.409070272 c 0
 -12.9587303181 439.601589437 9.23819592846 471.925986265 38.2613504463 494.956352604 c 0
 67.2845049641 517.986718943 102.803677892 532.061663557 139.291965568 538.491759541 c 0
 175.780253243 544.921855524 213.280923497 543.944764161 250 539 c 0
 341.077182143 526.735116756 428.701155746 489.730570134 501 433 c 0
  Spiro
    501 433 v
    508 337 c
    437 322 v
    231 398 c
    178 361 c
    194 355 c
    478 241 c
    229 0 c
    -4 105 v
    -22 190 c
    68 212 v
    235 136 c
    287 146 c
    227 225 c
    1 298 c
    250 539 c
    0 0 z
  EndSpiro
EndSplineSet
EndChar
StartChar: t
Encoding: 116 116 41
Width: 469
InSpiro: 1
Flags: H
LayerCount: 2
Back
SplineSet
90 693 m 0
 90 693 91 694 92 694 c 0
 92 694 93 693 94 693 c 0
 94 272 l 0
 94 249 94 226 98 204 c 0
 102 182 110 161 123 142 c 0
 136 124 155 109 175 100 c 0
 196 92 219 89 242 94 c 0
 242 93 243 93 243 93 c 0
 243 93 243 92 244 92 c 0
 244 91 243 91 243 90 c 0
 243 90 243 90 243 90 c 0
 220 85 196 87 174 96 c 0
 153 105 134 120 120 138 c 0
 107 157 98 179 94 202 c 0
 90 225 89 248 90 272 c 0
 90 693 l 0
90 450 m 0
 90 454 l 0
 243 454 l 0
 243 453 244 452 244 452 c 0
 244 451 243 450 243 450 c 0
 90 450 l 0
  Spiro
    90 693 v
    92 694 c
    94 693 v
    94 272 ]
    242 94 v
    244 92 c
    243 90 v
    90 272 [
    90 450 v
    90 454 v
    243 454 v
    244 452 c
    243 450 v
    0 0 z
  EndSpiro
EndSplineSet
Fore
SplineSet
-4 735 m 0
 18 762 54 780 90 780 c 0
 125 780 161 762 184 735 c 0
 184 270 l 0
 184 257 184 245 186 233 c 0
 189 221 194 210 202 201 c 0
 209 192 220 185 232 182 c 0
 244 179 256 180 268 186 c 0
 300 172 325 141 332 107 c 0
 338 72 328 35 304 10 c 0
 269 -16 225 -29 182 -25 c 0
 139 -22 97 -2 67 28 c 0
 36 58 16 98 6 140 c 0
 -3 183 -4 226 -4 270 c 0
 -4 735 l 0
-3 360 m 0
 -3 540 l 0
 287 540 l 0
 315 519 334 485 334 450 c 0
 334 414 315 380 287 360 c 0
 -3 360 l 0
  Spiro
    -4 735 v
    90 780 c
    184 735 v
    184 270 ]
    268 186 v
    332 107 c
    304 10 v
    -4 270 [
    -3 360 v
    -3 540 v
    287 540 v
    334 450 c
    287 360 v
    0 0 z
  EndSpiro
EndSplineSet
EndChar
StartChar: u
Encoding: 117 117 42
Width: 619
InSpiro: 1
Flags: H
LayerCount: 2
Back
SplineSet
90 453 m 0
 90 453 91 454 92 454 c 0
 92 454 93 453 94 453 c 0
 94 272 l 0
 94 249 94 227 98 206 c 0
 103 184 112 163 125 146 c 0
 139 129 157 115 177 106 c 0
 197 97 219 93 242 94 c 0
 263 94 285 98 306 107 c 0
 326 115 343 129 357 147 c 0
 370 164 379 185 384 206 c 0
 388 227 389 250 389 272 c 0
 389 453 l 0
 389 453 390 454 392 454 c 0
 392 453 393 453 394 453 c 0
 394 272 l 0
 394 249 393 226 388 204 c 0
 384 182 375 161 361 143 c 0
 347 125 328 111 307 102 c 0
 287 94 264 89 242 90 c 0
 219 90 196 94 176 102 c 0
 155 111 136 125 122 143 c 0
 108 161 99 182 95 204 c 0
 90 226 89 249 90 272 c 0
 90 453 l 0
389 453 m 0
 389 453 390 454 392 454 c 0
 392 453 393 453 394 453 c 0
 394 90 l 0
 392 90 l 0
 389 90 l 0
 389 453 l 0
  Spiro
    90 453 v
    92 454 c
    94 453 v
    94 272 ]
    242 94 c
    389 272 [
    389 453 v
    392 454 c
    394 453 v
    394 272 ]
    242 90 c
    90 272 [
    389 453 v
    392 454 c
    394 453 v
    394 90 v
    392 90 c
    389 90 v
    0 0 z
  EndSpiro
EndSplineSet
Fore
SplineSet
-4 495 m 0
 18 522 54 540 90 540 c 0
 125 540 161 522 184 495 c 0
 184 270 l 0
 184 250 184 229 193 212 c 0
 197 203 203 195 211 189 c 0
 219 183 229 180 239 180 c 0
 248 179 258 183 266 189 c 0
 274 194 281 202 285 211 c 0
 294 229 294 250 295 270 c 0
 295 495 l 0
 317 523 353 540 390 540 c 0
 425 539 461 522 484 495 c 0
 484 270 l 0
 484 235 483 200 475 166 c 0
 467 132 451 100 428 74 c 0
 405 47 375 28 342 16 c 0
 309 4 274 0 240 0 c 0
 205 0 170 4 137 16 c 0
 104 28 74 48 51 74 c 0
 28 100 12 132 4 166 c 0
 -3 200 -4 235 -4 270 c 0
 -4 495 l 0
295 495 m 0
 317 523 353 540 390 540 c 0
 425 539 461 522 484 495 c 0
 484 44 l 0
 461 16 425 0 390 0 c 0
 353 0 318 16 295 44 c 0
 295 495 l 0
  Spiro
    -4 495 v
    90 540 c
    184 495 v
    184 270 ]
    239 180 c
    295 270 [
    295 495 v
    390 540 c
    484 495 v
    484 270 ]
    240 0 c
    -4 270 [
    295 495 v
    390 540 c
    484 495 v
    484 44 v
    390 0 c
    295 44 v
    0 0 z
  EndSpiro
EndSplineSet
EndChar
StartChar: v
Encoding: 118 118 43
Width: 619
InSpiro: 1
Flags: H
LayerCount: 2
Back
SplineSet
90 452 m 0
 90 452 90 452 91 453 c 0
 91 453 92 453 93 453 c 0
 242 97 l 0
 390 453 l 0
 390 453 391 453 392 453 c 0
 392 452 393 452 394 452 c 0
 243 90 l 0
 240 90 l 0
 90 452 l 0
  Spiro
    90 452 v
    91 453 c
    93 453 v
    242 97 v
    390 453 v
    392 453 c
    394 452 v
    243 90 v
    240 90 v
    0 0 z
  EndSpiro
EndSplineSet
Fore
SplineSet
-14 456 m 0
 -4 490 20 519 53 533 c 0
 86 547 126 544 158 526 c 0
 240 323 l 0
 321 526 l 0
 352 544 392 547 426 533 c 0
 458 519 484 490 494 456 c 0
 290 -27 l 0
 189 -27 l 0
 -14 456 l 0
  Spiro
    -14 456 v
    53 533 c
    158 526 v
    240 323 v
    321 526 v
    426 533 c
    494 456 v
    290 -27 v
    189 -27 v
    0 0 z
  EndSpiro
EndSplineSet
EndChar
StartChar: w
Encoding: 119 119 44
Width: 769
InSpiro: 1
Flags: H
LayerCount: 2
Back
SplineSet
90 452 m 0
 90 452 90 452 91 453 c 0
 91 453 92 453 93 453 c 0
 204 98 l 0
 315 454 l 0
 318 454 l 0
 429 98 l 0
 540 453 l 0
 540 453 541 453 542 453 c 0
 542 452 543 452 544 452 c 0
 430 90 l 0
 427 90 l 0
 316 445 l 0
 205 90 l 0
 202 90 l 0
 90 452 l 0
  Spiro
    90 452 v
    91 453 c
    93 453 v
    204 98 v
    315 454 v
    318 454 v
    429 98 v
    540 453 v
    542 453 c
    544 452 v
    430 90 v
    427 90 v
    316 445 v
    205 90 v
    202 90 v
    0 0 z
  EndSpiro
EndSplineSet
Fore
SplineSet
-13 466 m 0
 0 498 27 524 61 535 c 0
 95 546 135 539 165 519 c 0
 202 391 l 0
 254 562 l 0
 376 562 l 0
 427 391 l 0
 464 519 l 0
 493 539 533 545 568 535 c 0
 601 524 630 497 643 465 c 0
 487 -22 l 0
 365 -22 l 0
 314 148 l 0
 262 -22 l 0
 140 -22 l 0
 -13 466 l 0
  Spiro
    -13 466 v
    61 535 c
    165 519 v
    202 391 v
    254 562 v
    376 562 v
    427 391 v
    464 519 v
    568 535 c
    643 465 v
    487 -22 v
    365 -22 v
    314 148 v
    262 -22 v
    140 -22 v
    0 0 z
  EndSpiro
EndSplineSet
EndChar
StartChar: x
Encoding: 120 120 45
Width: 619
InSpiro: 1
Flags: H
LayerCount: 2
Back
SplineSet
90 451 m 0
 89 451 89 451 89 452 c 0
 89 452 89 452 90 453 c 0
 90 453 90 453 90 453 c 0
 91 453 91 454 92 454 c 0
 394 92 l 0
 394 91 393 91 393 90 c 0
 393 90 393 90 393 90 c 0
 392 89 392 89 392 89 c 0
 391 89 391 89 391 90 c 0
 90 451 l 0
391 454 m 0
 391 453 392 453 393 453 c 0
 393 452 393 451 394 451 c 0
 92 90 l 0
 91 89 91 89 91 89 c 0
 90 89 90 89 90 90 c 0
 89 90 89 90 89 91 c 0
 89 91 89 91 90 92 c 0
 391 454 l 0
  Spiro
    90 451 v
    90 453 c
    92 454 v
    394 92 v
    393 90 c
    391 90 v
    391 454 v
    393 453 c
    394 451 v
    92 90 v
    90 90 c
    90 92 v
    0 0 z
  EndSpiro
EndSplineSet
Fore
SplineSet
-12 426 m 0
 -13 461 2 496 29 519 c 0
 57 542 96 551 132 542 c 0
 492 113 l 0
 493 77 477 42 450 20 c 0
 421 -3 382 -11 347 -2 c 0
 -12 426 l 0
347 542 m 0
 382 551 421 542 450 519 c 0
 477 496 493 461 492 426 c 0
 132 -2 l 0
 96 -11 57 -3 29 20 c 0
 1 42 -13 77 -12 113 c 0
 347 542 l 0
  Spiro
    -12 426 v
    29 519 c
    132 542 v
    492 113 v
    450 20 c
    347 -2 v
    347 542 v
    450 519 c
    492 426 v
    132 -2 v
    29 20 c
    -12 113 v
    0 0 z
  EndSpiro
EndSplineSet
EndChar
StartChar: y
Encoding: 121 121 46
Width: 619
InSpiro: 1
Flags: H
LayerCount: 2
Back
SplineSet
90 453 m 0
 90 453 91 454 92 454 c 0
 92 454 93 453 94 453 c 0
 94 272 l 0
 94 249 94 227 98 206 c 0
 103 184 112 163 125 146 c 0
 139 129 157 115 177 106 c 0
 197 97 219 93 242 94 c 0
 263 94 285 98 306 107 c 0
 326 115 343 129 357 147 c 0
 370 164 379 185 384 206 c 0
 388 227 389 250 389 272 c 0
 389 453 l 0
 389 453 390 454 392 454 c 0
 392 453 393 453 394 453 c 0
 394 272 l 0
 394 249 393 226 388 204 c 0
 384 182 375 161 361 143 c 0
 347 125 328 111 307 102 c 0
 287 94 264 89 242 90 c 0
 219 90 196 94 176 102 c 0
 155 111 136 125 122 143 c 0
 108 161 99 182 95 204 c 0
 90 226 89 249 90 272 c 0
 90 453 l 0
389 453 m 0
 389 453 390 454 392 454 c 0
 392 453 393 453 394 453 c 0
 394 92 l 0
 393 30 393 -31 370 -88 c 0
 359 -117 343 -143 321 -165 c 0
 299 -186 271 -202 242 -209 c 0
 213 -215 183 -212 156 -201 c 0
 129 -190 106 -171 90 -148 c 0
 89 -147 89 -147 89 -147 c 0
 89 -146 89 -146 90 -146 c 0
 90 -145 90 -145 91 -145 c 0
 92 -145 92 -145 93 -146 c 0
 108 -169 131 -188 157 -198 c 0
 183 -209 213 -211 241 -206 c 0
 270 -199 297 -183 318 -162 c 0
 340 -141 355 -115 366 -87 c 0
 388 -30 388 30 389 91 c 0
 389 453 l 0
  Spiro
    90 453 v
    92 454 c
    94 453 v
    94 272 ]
    242 94 c
    389 272 [
    389 453 v
    392 454 c
    394 453 v
    394 272 ]
    242 90 c
    90 272 [
    389 453 v
    392 454 c
    394 453 v
    394 92 ]
    242 -209 c
    90 -148 v
    90 -146 c
    93 -146 v
    241 -206 c
    389 91 [
    0 0 z
  EndSpiro
EndSplineSet
Fore
SplineSet
-4 495 m 0
 18 522 54 540 90 540 c 0
 125 540 161 522 184 495 c 0
 184 270 l 0
 184 250 184 229 193 212 c 0
 197 203 203 195 211 189 c 0
 219 183 229 180 239 180 c 0
 248 179 258 183 266 189 c 0
 274 194 281 202 285 211 c 0
 294 229 294 250 295 270 c 0
 295 495 l 0
 317 523 353 540 390 540 c 0
 425 539 461 522 484 495 c 0
 484 270 l 0
 484 235 483 200 475 166 c 0
 467 132 451 100 428 74 c 0
 405 47 375 28 342 16 c 0
 309 4 274 0 240 0 c 0
 205 0 170 4 137 16 c 0
 104 28 74 48 51 74 c 0
 28 100 12 132 4 166 c 0
 -3 200 -4 235 -4 270 c 0
 -4 495 l 0
295 495 m 0
 317 523 353 540 390 540 c 0
 425 539 461 522 484 495 c 0
 484 90 l 0
 483 8 480 -75 444 -148 c 0
 426 -185 400 -218 369 -244 c 0
 337 -270 299 -288 260 -297 c 0
 206 -308 149 -301 99 -277 c 0
 50 -253 9 -212 -14 -163 c 0
 -11 -128 7 -94 36 -75 c 0
 66 -54 106 -49 141 -62 c 0
 142 -80 151 -98 166 -109 c 0
 181 -121 200 -125 219 -122 c 0
 238 -117 255 -104 267 -88 c 0
 279 -71 285 -51 289 -32 c 0
 296 7 294 48 295 89 c 0
 295 495 l 0
  Spiro
    -4 495 v
    90 540 c
    184 495 v
    184 270 ]
    239 180 c
    295 270 [
    295 495 v
    390 540 c
    484 495 v
    484 270 ]
    240 0 c
    -4 270 [
    295 495 v
    390 540 c
    484 495 v
    484 90 ]
    260 -297 c
    -14 -163 v
    36 -75 c
    141 -62 v
    219 -122 c
    295 89 [
    0 0 z
  EndSpiro
EndSplineSet
EndChar
StartChar: z
Encoding: 122 122 47
Width: 619
InSpiro: 1
Flags: H
LayerCount: 2
Back
SplineSet
90 450 m 0
 90 452 l 0
 90 454 l 0
 394 454 l 0
 394 452 l 0
 96 94 l 0
 393 94 l 0
 393 93 394 92 394 92 c 0
 394 91 393 90 393 90 c 0
 90 90 l 0
 90 91 l 0
 387 450 l 0
 90 450 l 0
  Spiro
    90 450 v
    90 452 c
    90 454 v
    394 454 v
    394 452 v
    96 94 v
    393 94 v
    394 92 c
    393 90 v
    90 90 v
    90 91 v
    387 450 v
    0 0 z
  EndSpiro
EndSplineSet
Fore
SplineSet
42 360 m 0
 13 380 -4 415 -4 450 c 0
 -3 484 13 519 42 540 c 0
 483 540 l 0
 521 461 l 0
 286 180 l 0
 437 180 l 0
 465 159 484 125 484 90 c 0
 484 54 465 20 437 0 c 0
 -3 0 l 0
 -41 78 l 0
 193 360 l 0
 42 360 l 0
  Spiro
    42 360 v
    -4 450 c
    42 540 v
    483 540 v
    521 461 v
    286 180 v
    437 180 v
    484 90 c
    437 0 v
    -3 0 v
    -41 78 v
    193 360 v
    0 0 z
  EndSpiro
EndSplineSet
EndChar
StartChar: "+AKMA"
Encoding: 163 163 74
Width: 619
InSpiro: 1
Flags: HO
LayerCount: 2
Fore
SplineSet
76 208 m 1
 74.9414309332 221.429465609 76.3030925763 235.04608204 80 248 c 0
 89.5943958294 281.618644506 115.65332526 310.111510128 148.283943161 322.661747782 c 0
 180.914561062 335.211985437 219.350428942 331.524811088 249 313 c 1
 283.005386459 335.243932353 324.592858787 346.292059383 365 342 c 0
 396.043226179 338.702578648 426.545849324 325.677616673 448 303 c 0
 465.145039357 284.877230367 476.020934745 260.869066215 478 236 c 1
 505.226421138 232.453105707 530.647270931 216.762956251 546 194 c 0
 558.663339485 175.224507943 564.446195136 151.899053886 561.936593946 129.391695739 c 0
 559.426992756 106.884337593 548.621699434 85.381754672 532 70 c 0
 519.527828071 58.4582265733 503.892747781 50.3661307285 487.264584553 46.8630186708 c 0
 470.636421324 43.3599066131 453.063353896 44.4559700511 437 50 c 1
 423.965983112 25.9659153955 399.083877135 8.73984202684 372 5 c 0
 344.323749258 1.17836083233 315.06195701 11.5739975521 296 32 c 1
 276.73309543 19.3022908508 254.101260177 11.7616566228 231.068742638 10.3657464689 c 0
 208.036225099 8.96983631499 184.659367856 13.7220649372 164 24 c 0
 154.7077578 28.6228453157 145.961339886 34.3416570286 138 41 c 1
 121.1923384 34.6668158186 102.503422473 33.4230655453 85.006261384 37.4796730114 c 0
 67.5091002946 41.5362804775 51.2662113699 50.8795286307 39 64 c 0
 26.7503585169 77.1027475002 18.5198394978 93.9358201849 15.8183679039 111.668213135 c 0
 13.11689631 129.400606086 15.9806763495 147.955494501 24 164 c 0
 34.4350359177 184.877694736 53.6783004165 201.180187702 76 208 c 1
  Spiro
    76 208 v
    80 248 o
    249 313 v
    365 342 o
    448 303 o
    478 236 v
    546 194 o
    532 70 o
    437 50 v
    372 5 o
    296 32 v
    164 24 o
    138 41 v
    39 64 o
    24 164 o
    0 0 z
  EndSpiro
EndSplineSet
EndChar
